<?xml version="1.0" encoding="UTF-8"?>
<svg width="32px" height="32px" viewBox="0 0 32 32" version="1.1" xmlns="http://www.w3.org/2000/svg" xmlns:xlink="http://www.w3.org/1999/xlink">
    <!-- Generator: Sketch 50.2 (55047) - http://www.bohemiancoding.com/sketch -->
    <title>Icon / ranking-filled</title>
    <desc>Created with Sketch.</desc>
    <defs>
        <path d="M25.9824999,13 L25.9824999,7 C29.9344999,7 29.9754999,6.791 29.9754999,9 C29.9754999,11.209 28.1884999,13 25.9824999,13 L25.9824999,13 Z M6.02249994,13 C3.81749994,13 2.02949994,11.209 2.02949994,9 C2.02949994,6.791 2.07049994,7 6.02249994,7 L6.02249994,13 L6.02249994,13 Z M25.9824999,5 C25.9824999,2.791 24.1954999,1 21.9904999,1 L10.0144999,1 C7.80949994,1 6.02249994,2.791 6.02249994,5 C-0.814500058,5 0.0334999421,4.999 0.0334999421,9 C0.0334999421,12.313 2.71449994,15 6.02249994,15 C6.26049994,15 6.48849994,14.962 6.71849994,14.93 C8.05849994,18.854 11.2154999,22.389 15.0044999,22.928 L15.0044999,29 L12.0104999,29 C11.4594999,29 11.0124999,29.447 11.0124999,30 C11.0124999,30.553 11.4594999,31 12.0104999,31 L19.9944999,31 C20.5454999,31 20.9924999,30.553 20.9924999,30 C20.9924999,29.447 20.5454999,29 19.9944999,29 L17.0004999,29 L17.0004999,22.928 C20.7894999,22.389 23.9464999,18.854 25.2874999,14.93 C25.5164999,14.962 25.7444999,15 25.9824999,15 C29.2904999,15 31.9714999,12.313 31.9714999,9 C31.9714999,4.999 32.8194999,5 25.9824999,5 L25.9824999,5 Z" id="path-1"></path>
    </defs>
    <g id="Icon-/-ranking-filled" stroke="none" stroke-width="1" fill="none" fill-rule="evenodd">
        <mask id="mask-2" fill="white">
            <use xlink:href="#path-1"></use>
        </mask>
        <use id="Mask" fill="#FFFFFE" xlink:href="#path-1"></use>
        <g id="Bg-/-base-/-color#primary" mask="url(#mask-2)" fill="#0072EE">
            <rect id="Rectangle-2" x="0" y="0" width="32" height="32"></rect>
        </g>
    </g>
</svg>