<?xml version="1.0" encoding="UTF-8"?>
<svg width="32px" height="32px" viewBox="0 0 32 32" version="1.1" xmlns="http://www.w3.org/2000/svg" xmlns:xlink="http://www.w3.org/1999/xlink">
    <!-- Generator: Sketch 50.2 (55047) - http://www.bohemiancoding.com/sketch -->
    <title>Icon / link</title>
    <desc>Created with Sketch.</desc>
    <defs>
        <path d="M28,26.0000017 C28,27.0870017 27.087,28.0000017 26,28.0000017 L5.935,28.0330017 C4.848,28.0330017 3.967,27.1520017 3.967,26.0650017 L4,6.00000172 C4,4.91300172 4.913,4.00000172 6,4.00000172 L17,4.00000172 L17,2.00000172 L6,2.00000172 C3.827,2.00000172 2,4.22100172 2,6.39400172 L2,26.0650017 C2,28.2380017 3.762,30.0000017 5.935,30.0000017 L25.606,30.0000017 C27.779,30.0000017 30,28.1730017 30,26.0000017 L30,15.0000017 L28,15.0000017 L28,26.0000017 L28,26.0000017 Z M28.979,2.00000172 L22,2.00000172 C21.433,2.00100172 21.001,2.45900172 21,3.00000172 C20.999,3.54100172 21.433,4.00100172 22,4.00000172 L26.395,3.96800172 L11.308,18.3570017 C10.908,18.7380017 10.908,19.3550017 11.308,19.7360017 C11.706,20.1170017 12.354,20.1170017 12.753,19.7360017 L27.971,5.22200172 L28,10.0000017 C27.999,10.5410017 28.433,11.0010017 29,11.0000017 C29.567,10.9990017 29.999,10.5410017 30,10.0000017 L30,2.97500172 C30.001,2.43400172 29.546,1.99900172 28.979,2.00000172 L28.979,2.00000172 Z" id="path-1"></path>
    </defs>
    <g id="Icon-/-link" stroke="none" stroke-width="1" fill="none" fill-rule="evenodd">
        <mask id="mask-2" fill="white">
            <use xlink:href="#path-1"></use>
        </mask>
        <use id="Mask" fill="#FFFFFE" xlink:href="#path-1"></use>
        <g id="Bg-/-base-/-color#primary" mask="url(#mask-2)" fill="#0072EE">
            <rect id="Rectangle-2" x="0" y="0" width="32" height="32"></rect>
        </g>
    </g>
</svg>