<?xml version="1.0" encoding="UTF-8"?>
<svg width="32px" height="32px" viewBox="0 0 32 32" version="1.1" xmlns="http://www.w3.org/2000/svg" xmlns:xlink="http://www.w3.org/1999/xlink">
    <!-- Generator: Sketch 50.2 (55047) - http://www.bohemiancoding.com/sketch -->
    <title>Icon / tag</title>
    <desc>Created with Sketch.</desc>
    <defs>
        <path d="M30.09575,14.328 C30.09575,14.856 29.60975,15.63 29.09375,16.146 L18.82175,26.385 L5.63275,13.204 L15.88875,2.981 C16.35875,2.511 17.10975,1.91 17.63975,1.91 L29.13775,1.91 C29.66675,1.91 30.09575,2.338 30.09575,2.865 L30.09575,14.328 L30.09575,14.328 Z M15.88875,29.311 C15.07775,30.118 13.76375,30.118 12.95375,29.311 L2.68275,19.07 C1.87175,18.263 1.87175,16.953 2.68275,16.146 L4.16475,14.667 L17.33975,27.863 L15.88875,29.311 L15.88875,29.311 Z M30.09575,0 L16.68175,0 C15.62275,0 15.42975,0.462 14.42075,1.518 L1.21575,14.683 C-0.40525,16.298 -0.40525,18.918 1.21575,20.533 L11.48575,30.774 C13.10675,32.389 15.73375,32.389 17.35475,30.774 L30.56175,17.609 C31.41075,16.761 32.01275,16.339 32.01275,15.283 L32.01275,1.91 C32.01275,0.856 31.15375,0 30.09575,0 L30.09575,0 Z M23.95775,11.026 C23.14675,11.833 21.83375,11.833 21.02275,11.026 C20.21275,10.218 20.21275,8.908 21.02275,8.1 C21.83375,7.292 23.14675,7.292 23.95775,8.1 C24.76875,8.908 24.76875,10.218 23.95775,11.026 L23.95775,11.026 Z M19.55675,6.637 C17.93575,8.253 17.93575,10.872 19.55675,12.488 C21.17675,14.104 23.80475,14.104 25.42575,12.488 C27.04575,10.872 27.04575,8.253 25.42575,6.637 C23.80475,5.022 21.17675,5.022 19.55675,6.637 L19.55675,6.637 Z" id="path-1"></path>
    </defs>
    <g id="Icon-/-tag" stroke="none" stroke-width="1" fill="none" fill-rule="evenodd">
        <mask id="mask-2" fill="white">
            <use xlink:href="#path-1"></use>
        </mask>
        <use id="Mask" fill="#000000" xlink:href="#path-1"></use>
        <g id="Bg-/-base-/-color#primary" mask="url(#mask-2)" fill="#0072EE">
            <rect id="Rectangle-2" x="0" y="0" width="32" height="32"></rect>
        </g>
    </g>
</svg>