<?xml version="1.0" encoding="UTF-8"?>
<svg width="32px" height="32px" viewBox="0 0 32 32" version="1.1" xmlns="http://www.w3.org/2000/svg" xmlns:xlink="http://www.w3.org/1999/xlink">
    <!-- Generator: Sketch 50.2 (55047) - http://www.bohemiancoding.com/sketch -->
    <title>Icon / sns_twitter</title>
    <desc>Created with Sketch.</desc>
    <defs>
        <path d="M28.724736,9.47651813 C28.737792,9.7579167 28.743424,10.0408509 28.743424,10.3250647 C28.743424,18.9980018 22.139776,29 10.063744,29 C6.355584,29 2.905728,27.9134355 -1.42108547e-14,26.0517773 C0.51392,26.1123055 1.036416,26.1427615 1.56608,26.1427615 C4.642048,26.1427615 7.472768,25.0936912 9.720192,23.3331266 C6.846336,23.2796366 4.422784,21.3820197 3.586944,18.7743161 C3.986816,18.8508402 4.398208,18.8926852 4.82112,18.8926852 C5.42016,18.8926852 6.000384,18.8118103 6.551808,18.6618335 C3.548032,18.0600065 1.284736,15.406107 1.284736,12.2270325 C1.284736,12.19824 1.284736,12.1707271 1.286144,12.1433423 C2.17088,12.6355019 3.182848,12.9313607 4.259584,12.9643761 C2.497152,11.7883629 1.338112,9.77813543 1.338112,7.50096959 C1.338112,6.29885125 1.662848,5.17184931 2.2272,4.20211834 C5.46496,8.1735621 10.30336,10.7854886 15.759616,11.059721 C15.647104,10.5790784 15.589248,10.0783451 15.589248,9.56315152 C15.589248,5.93952101 18.529664,3 22.155648,3 C24.043648,3 25.749888,3.79799978 26.94784,5.07369892 C28.443264,4.77924775 29.84768,4.23244643 31.116672,3.48064259 C30.62592,5.01317072 29.585152,6.29885125 28.22976,7.11143923 C29.557632,6.95263267 30.823552,6.60046855 32,6.07810885 C31.120896,7.39424544 30.006656,8.55016783 28.724736,9.47651813" id="path-1"></path>
    </defs>
    <g id="Icon-/-sns_twitter" stroke="none" stroke-width="1" fill="none" fill-rule="evenodd">
        <mask id="mask-2" fill="white">
            <use xlink:href="#path-1"></use>
        </mask>
        <use id="Mask" fill="#1DA1F2" xlink:href="#path-1"></use>
        <g id="Bg-/-base-/-color#primary" mask="url(#mask-2)" fill="#0072EE">
            <rect id="Rectangle-2" x="0" y="0" width="32" height="32"></rect>
        </g>
    </g>
</svg>