<?xml version="1.0" encoding="UTF-8"?>
<svg width="32px" height="32px" viewBox="0 0 32 32" version="1.1" xmlns="http://www.w3.org/2000/svg" xmlns:xlink="http://www.w3.org/1999/xlink">
    <!-- Generator: Sketch 50.2 (55047) - http://www.bohemiancoding.com/sketch -->
    <title>Icon / voice#pair</title>
    <desc>Created with Sketch.</desc>
    <defs>
        <path d="M18.908897,10.6587094 C21.3152,10.6587094 23.2725333,13.0548659 23.2725333,15.9996863 C23.2725333,18.9445068 21.3152,21.3406632 18.908897,21.3406632 C17.8213818,21.3406632 16.7881697,20.8424958 15.9998061,19.9816274 C15.2114424,20.8424958 14.1782303,21.3406632 13.0907152,21.3406632 C10.6844121,21.3406632 8.72707879,18.9445068 8.72707879,15.9996863 C8.72707879,13.0548659 10.6844121,10.6587094 13.0907152,10.6587094 C14.1782303,10.6587094 15.2114424,11.1568769 15.9998061,12.0182308 C16.7881697,11.1568769 17.8213818,10.6587094 18.908897,10.6587094 Z M7.60775758,20.8529835 C8.18036364,21.8439775 8.90715152,22.7135856 9.76775758,23.4380163 C10.1779394,23.7827521 10.2312727,24.3955078 9.88654545,24.8062775 C9.6950303,25.0349684 9.42012121,25.1524699 9.14375758,25.1524699 C8.92363636,25.1524699 8.70254545,25.0781818 8.52072727,24.9252356 C7.48654545,24.0556275 6.61478788,23.0126803 5.92969697,21.8260124 C5.92969697,21.8250413 5.92872727,21.8245557 5.92824242,21.8240702 C5.24848485,20.646142 4.784,19.3672208 4.54933333,18.0227513 C4.54933333,18.0222657 4.54884848,18.0212946 4.54884848,18.0208091 C4.42424242,17.3080315 4.36363636,16.6467214 4.36363636,15.9994921 C4.36363636,15.3522628 4.42424242,14.6914383 4.54884848,13.9786607 C4.54884848,13.9776896 4.54933333,13.9767185 4.54981818,13.9757474 C4.78448485,12.6317634 5.24848485,11.3533278 5.92824242,10.1758851 C5.92872727,10.1744285 5.93018182,10.1734574 5.93066667,10.1720008 C6.61527273,8.9863039 7.48654545,7.94384232 8.52072727,7.07471971 C8.93090909,6.72998393 9.54230303,6.78242261 9.88654545,7.19367784 C10.2312727,7.60396197 10.1779394,8.21671768 9.76775758,8.56145347 C8.90715152,9.28588415 8.18036364,10.1554923 7.60775758,11.1464863 C7.60775758,11.1469718 7.60775758,11.1479429 7.60727273,11.1484285 C7.0409697,12.1287405 6.65454545,13.1935371 6.45915152,14.3132 L6.45915152,14.3141711 C6.35393939,14.9147883 6.3030303,15.4663655 6.3030303,15.9994921 C6.3030303,16.5331043 6.35393939,17.0846815 6.45915152,17.6857842 L6.45915152,17.6862697 C6.65454545,18.8064182 7.0409697,19.8712148 7.60727273,20.8515269 C7.60775758,20.8520124 7.60775758,20.8524979 7.60775758,20.8529835 Z M3.83030303,23.0353067 C4.66036364,24.4734861 5.71490909,25.7349277 6.96339394,26.785158 C7.37357576,27.1298938 7.42690909,27.7426495 7.08218182,28.1534192 C6.89066667,28.3821101 6.61575758,28.4996116 6.33939394,28.4996116 C6.11927273,28.4996116 5.89818182,28.4253234 5.71636364,28.2723773 C4.29430303,27.076484 3.09430303,25.6417034 2.15127273,24.0073644 C1.21551515,22.3861352 0.577454545,20.6270116 0.255030303,18.7785481 L0.255030303,18.7780625 C0.0829090909,17.7943517 0,16.8854145 0,15.9997834 C0,15.1136668 0.0829090909,14.2052152 0.255030303,13.2215044 L0.255030303,13.2210188 C0.577454545,11.3725553 1.21551515,9.6134317 2.15127273,7.99220244 C3.09430303,6.3578635 4.29430303,4.92308289 5.71636364,3.72718961 C6.12654545,3.38293937 6.73793939,3.4358636 7.08218182,3.84614773 C7.42690909,4.25691741 7.37357576,4.86967312 6.96339394,5.2144089 C5.71490909,6.26463918 4.66036364,7.52608082 3.83030303,8.96426023 C3.0089697,10.3873878 2.44848485,11.9319012 2.16484848,13.5555582 L2.16484848,13.5560437 C2.01309091,14.4280796 1.93939394,15.227284 1.93939394,15.9997834 C1.93939394,16.7722829 2.01309091,17.5714873 2.16484848,18.4435231 L2.16484848,18.4440087 C2.44848485,20.0676657 3.0089697,21.6121791 3.83030303,23.0353067 Z M31.9998061,15.9996863 C31.9998061,16.885803 31.9164121,17.7942546 31.7447758,18.778451 L31.7447758,18.7789365 C31.4218667,20.6283711 30.7838061,22.3874947 29.8485333,24.0077529 C29.8485333,24.0082384 29.8480485,24.0082384 29.8475636,24.008724 C28.9040485,25.6420918 27.7050182,27.0768724 26.2834424,28.2722802 C26.1016242,28.4252263 25.8805333,28.5 25.6604121,28.5 C25.3835636,28.5 25.1091394,28.382013 24.9176242,28.153322 C24.572897,27.7425524 24.6262303,27.1297967 25.0364121,26.7850609 C26.284897,25.7353161 27.3389576,24.4738745 28.1690182,23.0356951 C28.169503,23.0356951 28.169503,23.0352095 28.169503,23.0352095 C28.9903515,21.6135386 29.5503515,20.0685396 29.8344727,18.4439116 C29.9867152,17.5713902 30.0604121,16.7721858 30.0604121,15.9996863 C30.0604121,15.2242736 29.9867152,14.4250692 29.8344727,13.5559466 L29.8344727,13.5554611 C29.5503515,11.930833 28.9903515,10.3863196 28.169503,8.96464867 C28.169503,8.96416312 28.169503,8.96416312 28.1690182,8.96367758 C27.3389576,7.52598371 26.284897,6.26454207 25.0364121,5.21479734 C24.6262303,4.86957601 24.572897,4.2568203 24.9176242,3.84653617 C25.2623515,3.43576649 25.8732606,3.38284226 26.2834424,3.7270925 C27.7050182,4.92250024 28.9040485,6.35679531 29.8470788,7.99016315 C29.8475636,7.9906487 29.8480485,7.99113424 29.8485333,7.99210533 C30.7838061,9.61187796 31.4218667,11.370516 31.7447758,13.2199506 L31.7447758,13.2204362 C31.9164121,14.2017193 31.9998061,15.1106565 31.9998061,15.9996863 Z M27.4500848,18.0229455 C27.215903,19.3669295 26.751903,20.6453652 26.0716606,21.8237789 C25.3851152,23.012389 24.5128727,24.0558217 23.4791758,24.9254298 C23.2973576,25.0778904 23.0762667,25.1526641 22.8556606,25.1526641 C22.579297,25.1526641 22.3048727,25.0346771 22.1123879,24.8059862 C21.7681455,24.3952165 21.8219636,23.7824608 22.2316606,23.437725 C23.0927515,22.7142654 23.8200242,21.8441717 24.3926303,20.8517211 C24.9584485,19.8709235 25.3448727,18.8056414 25.5407515,17.6864639 L25.5407515,17.6854929 C25.6454788,17.0843902 25.6968727,16.5332985 25.6968727,15.9996863 C25.6968727,15.4660742 25.6454788,14.9149825 25.5407515,14.3143653 L25.5407515,14.3129087 C25.3448727,13.1937313 24.9584485,12.1284492 24.3926303,11.1481371 C23.8200242,10.1556865 23.0927515,9.28510728 22.2316606,8.56164768 C21.8219636,8.2169119 21.7681455,7.60415619 22.1123879,7.19338651 C22.4580848,6.78213129 23.0689939,6.72969261 23.4791758,7.07442839 C24.5128727,7.94355099 25.3851152,8.98698366 26.0716606,10.1760793 C26.751903,11.3540075 27.2154182,12.6324432 27.4496,13.9759416 C27.4500848,13.9769127 27.4505697,13.9773983 27.4505697,13.9783693 C27.5756606,14.6916325 27.6362667,15.352457 27.6362667,15.9996863 C27.6362667,16.6469156 27.5756606,17.3077401 27.4505697,18.0210033 C27.4505697,18.0214889 27.4500848,18.0224599 27.4500848,18.0229455 Z" id="path-1"></path>
    </defs>
    <g id="Icon-/-voice#pair" stroke="none" stroke-width="1" fill="none" fill-rule="evenodd">
        <mask id="mask-2" fill="white">
            <use xlink:href="#path-1"></use>
        </mask>
        <use id="Mask" fill="#000000" xlink:href="#path-1"></use>
        <g id="Bg-/-base-/-color#sex_pair" mask="url(#mask-2)" fill="#C39CFF">
            <rect id="Rectangle-2" x="0" y="0" width="32" height="32"></rect>
        </g>
    </g>
</svg>