<?xml version="1.0" encoding="UTF-8"?>
<svg width="32px" height="32px" viewBox="0 0 32 32" version="1.1" xmlns="http://www.w3.org/2000/svg" xmlns:xlink="http://www.w3.org/1999/xlink">
    <!-- Generator: Sketch 50.2 (55047) - http://www.bohemiancoding.com/sketch -->
    <title>Icon / voice#female</title>
    <desc>Created with Sketch.</desc>
    <defs>
        <path d="M16,10.6591074 C18.9406061,10.6591074 21.3333333,13.0552625 21.3333333,16.0000814 C21.3333333,18.9449003 18.9406061,21.3410555 16,21.3410555 C13.0593939,21.3410555 10.6666667,18.9449003 10.6666667,16.0000814 C10.6666667,13.0552625 13.0593939,10.6591074 16,10.6591074 Z M32,16.0000814 C32,16.8891108 31.9166061,17.7980475 31.7449697,18.7793301 L31.7449697,18.7798156 C31.4220606,20.6292493 30.784,22.3878864 29.8487273,24.0076582 C29.8482424,24.0081437 29.8482424,24.0086292 29.8477576,24.0091148 C28.9047273,25.6424818 27.7052121,27.0767761 26.2836364,28.2726687 C26.1018182,28.4251293 25.8807273,28.4999029 25.6606061,28.4999029 C25.3837576,28.4999029 25.1093333,28.3819159 24.9178182,28.1532251 C24.5730909,27.7429412 24.6264242,27.1301858 25.0366061,26.7849647 C26.2850909,25.7352205 27.3391515,24.4737795 28.1692121,23.0360864 C28.1692121,23.0356009 28.169697,23.0356009 28.169697,23.0351153 C28.9905455,21.6134452 29.5505455,20.0689326 29.8346667,18.4443054 L29.8346667,18.4438198 C29.9869091,17.5746977 30.0606061,16.7754937 30.0606061,16.0000814 C30.0606061,15.2246691 29.9869091,14.4249796 29.8346667,13.5558575 L29.8346667,13.5553719 C29.5505455,11.9312303 28.9905455,10.3862321 28.169697,8.96456194 C28.169697,8.96456194 28.1692121,8.9640764 28.1692121,8.9640764 C27.3391515,7.52589775 26.2850909,6.26445678 25.0366061,5.21471261 C24.6264242,4.86997701 24.5730909,4.25722162 24.9178182,3.84645216 C25.2620606,3.4356827 25.8729697,3.38275851 26.2836364,3.7274941 C27.7052121,4.92290121 28.9042424,6.35719552 29.8472727,7.99007695 C29.8477576,7.99104804 29.8482424,7.99153358 29.8487273,7.99201912 C30.784,9.61179089 31.4220606,11.3709135 31.7449697,13.2203472 L31.7449697,13.2208327 C31.9166061,14.2016298 32,15.1105665 32,16.0000814 Z M3.83049697,23.0352124 C4.66152727,24.4738766 5.71558788,25.7358032 6.96358788,26.7850618 C7.3737697,27.1302829 7.42710303,27.7425528 7.08237576,28.1533222 C6.89086061,28.382013 6.61595152,28.5 6.33958788,28.5 C6.11946667,28.5 5.89837576,28.4252264 5.71655758,28.2727658 C4.29546667,27.0773587 3.09595152,25.6425789 2.15146667,24.0077553 C2.15098182,24.0072697 2.15098182,24.0067842 2.15098182,24.0062986 C1.21619394,22.3870124 0.578618182,20.6278898 0.255224242,18.7789417 L0.255224242,18.7779706 C0.0831030303,17.7947458 0.000193939394,16.8858091 0.000193939394,16.0001785 C0.000193939394,15.1140624 0.0831030303,14.2051257 0.255224242,13.2219009 L0.255224242,13.2209298 C0.578618182,11.3719817 1.21619394,9.61285909 2.15098182,7.99357286 C2.15098182,7.99308732 2.15098182,7.99260177 2.15146667,7.99211623 C3.09595152,6.35729262 4.29546667,4.92251277 5.71655758,3.72710567 C6.12673939,3.38285561 6.73813333,3.43626536 7.08237576,3.84654927 C7.42710303,4.25731873 7.3737697,4.86958858 6.96358788,5.21480972 C5.71558788,6.26406835 4.66152727,7.52599486 3.83049697,8.96465905 C3.83049697,8.96465905 3.83001212,8.96465905 3.83001212,8.9651446 C3.01013333,10.3868148 2.44916364,11.9313274 2.16504242,13.5559546 L2.16504242,13.5569257 C2.01328485,14.4284755 1.93958788,15.2271939 1.93958788,16.0001785 C1.93958788,16.7726776 2.01328485,17.571396 2.16504242,18.4429458 L2.16504242,18.4439169 C2.44916364,20.0685441 3.01013333,21.6125712 3.83001212,23.0347269 C3.83001212,23.0347269 3.83049697,23.0352124 3.83049697,23.0352124 Z M26.4957576,17.8556815 C26.2809697,19.0870188 25.8562424,20.2591198 25.2327273,21.3384821 C24.6038788,22.4280408 23.8038788,23.3845607 22.856,24.1818225 C22.6741818,24.334283 22.4530909,24.4090566 22.2329697,24.4090566 C21.9566061,24.4090566 21.681697,24.2910697 21.4901818,24.0623789 C21.1454545,23.652095 21.1987879,23.0393396 21.6089697,22.6941184 C22.3837576,22.0430051 23.0378182,21.2598241 23.553697,20.3664248 C24.0627879,19.484193 24.4104242,18.5252454 24.5864242,17.518229 L24.5864242,17.5167724 C24.6814545,16.9768485 24.7275152,16.4806234 24.7275152,15.9999358 C24.7275152,15.5202192 24.6814545,15.0239941 24.5869091,14.4830991 L24.5869091,14.4826136 C24.4104242,13.4746261 24.0627879,12.516164 23.553697,11.6334467 C23.0378182,10.7400474 22.3837576,9.95686637 21.6089697,9.30575308 C21.1987879,8.96053194 21.1454545,8.34777655 21.4901818,7.93749263 C21.8344242,7.52623763 22.4458182,7.47379897 22.856,7.81804903 C23.8038788,8.61531079 24.6033939,9.57183069 25.2327273,10.6613894 C25.8562424,11.7417228 26.2819394,12.9147949 26.4972121,14.1475888 L26.4972121,14.1485599 C26.6111515,14.8011298 26.6669091,15.4070876 26.6669091,15.9999358 C26.6669091,16.594726 26.6111515,17.2006838 26.4967273,17.8527682 C26.4967273,17.8537393 26.4962424,17.8547104 26.4957576,17.8556815 Z M8.44746667,20.3680757 C8.96237576,21.2595328 9.61643636,22.0422283 10.3917091,22.6943126 C10.8014061,23.0390482 10.8552242,23.6518036 10.510497,24.0625731 C10.318497,24.2912639 10.0440727,24.4092509 9.76770909,24.4092509 C9.54758788,24.4092509 9.32601212,24.3344772 9.14419394,24.1815311 C8.19631515,23.3842694 7.39728485,22.4287206 6.76940606,21.341104 C6.76940606,21.3401329 6.76843636,21.3396474 6.76795152,21.3391619 C6.14443636,20.2597996 5.71922424,19.0867274 5.50346667,17.8519913 L5.50346667,17.8515058 C5.38855758,17.1969937 5.33328485,16.5915215 5.33328485,16.00013 C5.33328485,15.4087385 5.38855758,14.8032662 5.50346667,14.1482686 L5.50346667,14.1472975 C5.71922424,12.913047 6.14443636,11.7404604 6.76795152,10.6610981 C6.76843636,10.660127 6.76989091,10.6591559 6.77037576,10.6576993 C7.39825455,9.57056828 8.19631515,8.61501947 9.14419394,7.81824325 C9.55486061,7.47399319 10.1662545,7.52691739 10.510497,7.93720131 C10.8552242,8.34797077 10.8014061,8.96072615 10.3917091,9.30546175 C9.61692121,9.95754613 8.96237576,10.7402416 8.44746667,11.6321843 C8.44746667,11.6326698 8.44746667,11.6331554 8.44698182,11.6336409 C7.93740606,12.5153872 7.5897697,13.4733637 7.41328485,14.4828078 L7.41328485,14.4832933 C7.31873939,15.0261305 7.27267879,15.5223556 7.27267879,16.00013 C7.27267879,16.4779044 7.31873939,16.9741294 7.41328485,17.5164811 L7.41328485,17.5169666 C7.5897697,18.5264107 7.93740606,19.4848728 8.44698182,20.366619 C8.44746667,20.3671046 8.44746667,20.3675901 8.44746667,20.3680757 Z" id="path-1"></path>
    </defs>
    <g id="Icon-/-voice#female" stroke="none" stroke-width="1" fill="none" fill-rule="evenodd">
        <mask id="mask-2" fill="white">
            <use xlink:href="#path-1"></use>
        </mask>
        <use id="Mask" fill="#000000" xlink:href="#path-1"></use>
        <g id="Bg-/-base-/-color#sex_female" mask="url(#mask-2)" fill="#FF8090">
            <rect id="Rectangle-2" x="0" y="0" width="32" height="32"></rect>
        </g>
    </g>
</svg>