<?xml version="1.0" encoding="UTF-8"?>
<svg width="32px" height="32px" viewBox="0 0 32 32" version="1.1" xmlns="http://www.w3.org/2000/svg" xmlns:xlink="http://www.w3.org/1999/xlink">
    <!-- Generator: Sketch 50.2 (55047) - http://www.bohemiancoding.com/sketch -->
    <title>Icon / record</title>
    <desc>Created with Sketch.</desc>
    <defs>
        <path d="M11,7 C11,4.238 13.239,2 16,2 C18.761,2 21,4.238 21,7 L21,17 C21,19.762 18.761,22 16,22 C13.239,22 11,19.762 11,17 L11,7 L11,7 Z M16,24 C19.866,24 23,20.866 23,17 L23,7 C23,3.134 19.866,0 16,0 C12.134,0 9,3.134 9,7 L9,17 C9,20.866 12.134,24 16,24 L16,24 Z M27,19 L25,19 C24.089,23.007 20.282,26 16,26 C11.718,26 7.911,23.007 7,19 L5,19 C5.883,23.799 10.063,27.51 15,27.955 L15,30 L14,30 C13.448,30 13,30.448 13,31 C13,31.553 13.448,32 14,32 L18,32 C18.552,32 19,31.553 19,31 C19,30.448 18.552,30 18,30 L17,30 L17,27.955 C21.937,27.51 26.117,23.799 27,19 L27,19 Z" id="path-1"></path>
    </defs>
    <g id="Icon-/-record" stroke="none" stroke-width="1" fill="none" fill-rule="evenodd">
        <mask id="mask-2" fill="white">
            <use xlink:href="#path-1"></use>
        </mask>
        <use id="Mask" fill="#000000" xlink:href="#path-1"></use>
        <g id="Bg-/-base-/-color#primary" mask="url(#mask-2)" fill="#0072EE">
            <rect id="Rectangle-2" x="0" y="0" width="32" height="32"></rect>
        </g>
    </g>
</svg>