<?xml version="1.0" encoding="UTF-8"?>
<svg width="32px" height="32px" viewBox="0 0 32 32" version="1.1" xmlns="http://www.w3.org/2000/svg" xmlns:xlink="http://www.w3.org/1999/xlink">
    <!-- Generator: Sketch 50.2 (55047) - http://www.bohemiancoding.com/sketch -->
    <title>Icon / sns_line#original</title>
    <desc>Created with Sketch.</desc>
    <defs>
        <path d="M30.1976145,13.9309564 C30.1976145,7.53277455 23.7833964,2.32717455 15.8987418,2.32717455 C8.01506909,2.32717455 1.60019636,7.53277455 1.60019636,13.9309564 C1.60019636,19.6670655 6.68699636,24.4707745 13.5584145,25.3789564 C14.0241236,25.4794291 14.6577236,25.6862655 14.8180873,26.0842291 C14.9620873,26.4455382 14.9123418,27.0120473 14.8642327,27.3772836 C14.8642327,27.3772836 14.6966691,28.3862655 14.6600145,28.6012836 C14.5978327,28.9625927 14.3726691,30.0151018 15.8987418,29.3720109 C17.4251418,28.72892 24.1332509,24.5231382 27.13336,21.0700836 L27.1327055,21.0700836 C29.2049964,18.7978291 30.1976145,16.4915382 30.1976145,13.9309564 M12.9935745,10.8391127 L11.9904836,10.8391127 C11.8366655,10.8391127 11.7119745,10.9638036 11.7119745,11.1172945 L11.7119745,17.3475855 C11.7119745,17.5007491 11.8366655,17.6251127 11.9904836,17.6251127 L12.9935745,17.6251127 C13.1473927,17.6251127 13.2720836,17.5007491 13.2720836,17.3475855 L13.2720836,11.1172945 C13.2720836,10.9638036 13.1473927,10.8391127 12.9935745,10.8391127 M19.897,10.8391127 L18.8942364,10.8391127 C18.7400909,10.8391127 18.6154,10.9638036 18.6154,11.1172945 L18.6154,14.8187491 L15.7602727,10.9628218 C15.7537273,10.9530036 15.7462,10.9435127 15.7386727,10.9346764 L15.7370364,10.9327127 C15.7314727,10.9268218 15.7259091,10.9209309 15.7200182,10.9156945 C15.7183818,10.9140582 15.7167455,10.9124218 15.7151091,10.9107855 C15.7102,10.9065309 15.7052909,10.9022764 15.7000545,10.8983491 C15.6977636,10.8963855 15.6954727,10.8944218 15.6928545,10.8927855 C15.6882727,10.8895127 15.6833636,10.88624 15.6784545,10.8829673 C15.6758364,10.8810036 15.6728909,10.8796945 15.6699455,10.8780582 C15.6650364,10.8751127 15.6601273,10.8721673 15.6552182,10.8695491 C15.6522727,10.86824 15.6493273,10.8666036 15.6463818,10.8652945 C15.6411455,10.8630036 15.6359091,10.8603855 15.6303455,10.8584218 C15.6270727,10.85744 15.6244545,10.8561309 15.6215091,10.8554764 C15.6159455,10.8531855 15.6103818,10.8515491 15.6048182,10.8499127 C15.6015455,10.8489309 15.5986,10.8482764 15.595,10.8472945 C15.5897636,10.8459855 15.5845273,10.8450036 15.5792909,10.8440218 C15.5753636,10.84304 15.5711091,10.8427127 15.5675091,10.8423855 C15.5626,10.8414036 15.5576909,10.8407491 15.5527818,10.8404218 C15.5478727,10.8400945 15.5432909,10.8397673 15.5383818,10.83944 C15.5347818,10.83944 15.5318364,10.8391127 15.5285636,10.8391127 L14.5258,10.8391127 C14.3719818,10.8391127 14.2472909,10.9638036 14.2472909,11.1172945 L14.2472909,17.3475855 C14.2472909,17.5007491 14.3719818,17.6251127 14.5258,17.6251127 L15.5285636,17.6251127 C15.6823818,17.6251127 15.8074,17.5007491 15.8074,17.3475855 L15.8074,13.6471127 L18.6658,17.5079491 C18.6854364,17.5357673 18.7099818,17.5583491 18.7364909,17.5766764 C18.7374727,17.5773309 18.7384545,17.5779855 18.7394364,17.5789673 C18.745,17.58224 18.7508909,17.5861673 18.7567818,17.5891127 C18.7594,17.5907491 18.7620182,17.5923855 18.7646364,17.5936945 C18.7688909,17.5959855 18.7734727,17.5979491 18.7780545,17.5999127 C18.7823091,17.6018764 18.7865636,17.60384 18.7914727,17.6058036 C18.7944182,17.6071127 18.7970364,17.6080945 18.7996545,17.6090764 C18.8062,17.61104 18.8124182,17.6130036 18.8189636,17.6149673 C18.8199455,17.6152945 18.8215818,17.6156218 18.8228909,17.6159491 C18.8454727,17.6221673 18.8693636,17.6251127 18.8942364,17.6251127 L19.897,17.6251127 C20.0508182,17.6251127 20.1755091,17.5007491 20.1755091,17.3475855 L20.1755091,11.1172945 C20.1755091,10.9638036 20.0508182,10.8391127 19.897,10.8391127 M10.5757818,16.0654291 L7.85058182,16.0654291 L7.85058182,11.1173927 C7.85058182,10.9635745 7.72589091,10.8388836 7.5724,10.8388836 L6.56930909,10.8388836 C6.41549091,10.8388836 6.2908,10.9635745 6.2908,11.1173927 L6.2908,17.3470291 L6.2908,17.3473564 C6.2908,17.4223018 6.32058182,17.48972 6.36869091,17.5397927 C6.36967273,17.5411018 6.37065455,17.5427382 6.37229091,17.5440473 C6.37392727,17.5453564 6.37523636,17.5466655 6.37621818,17.5479745 C6.42661818,17.5957564 6.49403636,17.6255382 6.56865455,17.6255382 L6.56930909,17.6255382 L10.5757818,17.6255382 C10.7296,17.6255382 10.8539636,17.50052 10.8539636,17.3470291 L10.8539636,16.3439382 C10.8539636,16.19012 10.7296,16.0654291 10.5757818,16.0654291 M25.4356982,12.3992545 C25.5895164,12.3992545 25.71388,12.2745636 25.71388,12.1207455 L25.71388,11.1176545 C25.71388,10.9638364 25.5895164,10.8391455 25.4356982,10.8391455 L21.4292255,10.8391455 L21.4285709,10.8391455 C21.3532982,10.8391455 21.28588,10.8689273 21.23548,10.9176909 C21.2344982,10.9186727 21.2331891,10.9196545 21.2322073,10.9206364 C21.2305709,10.9222727 21.2289345,10.9239091 21.2279527,10.9255455 C21.1801709,10.9752909 21.1507164,11.0427091 21.1507164,11.1173273 L21.1507164,11.1176545 L21.1507164,17.3472909 L21.1507164,17.3476182 C21.1507164,17.4222364 21.1804982,17.4899818 21.2286073,17.5400545 C21.2295891,17.5410364 21.2308982,17.5426727 21.2322073,17.5439818 C21.2335164,17.5452909 21.2351527,17.5466 21.2361345,17.5475818 C21.2862073,17.5956909 21.3539527,17.6254727 21.4285709,17.6254727 L21.4292255,17.6254727 L25.4356982,17.6254727 C25.5895164,17.6254727 25.71388,17.5007818 25.71388,17.3472909 L25.71388,16.3438727 C25.71388,16.1900545 25.5895164,16.0653636 25.4356982,16.0653636 L22.7108255,16.0653636 L22.7108255,15.0122 L25.4356982,15.0122 C25.5895164,15.0122 25.71388,14.8878364 25.71388,14.7336909 L25.71388,13.7309273 C25.71388,13.5771091 25.5895164,13.4520909 25.4356982,13.4520909 L22.7108255,13.4520909 L22.7108255,12.3992545 L25.4356982,12.3992545 Z" id="path-1"></path>
    </defs>
    <g id="Icon-/-sns_line#original" stroke="none" stroke-width="1" fill="none" fill-rule="evenodd">
        <mask id="mask-2" fill="white">
            <use xlink:href="#path-1"></use>
        </mask>
        <use id="Mask" fill="#00B900" xlink:href="#path-1"></use>
        <g id="Bg-/-base-/-color#primary" mask="url(#mask-2)" fill="#0072EE">
            <rect id="Rectangle-2" x="0" y="0" width="32" height="32"></rect>
        </g>
    </g>
</svg>