<?xml version="1.0" encoding="UTF-8"?>
<svg width="32px" height="32px" viewBox="0 0 32 32" version="1.1" xmlns="http://www.w3.org/2000/svg" xmlns:xlink="http://www.w3.org/1999/xlink">
    <!-- Generator: Sketch 50.2 (55047) - http://www.bohemiancoding.com/sketch -->
    <title>Icon / top</title>
    <desc>Created with Sketch.</desc>
    <defs>
        <path d="M14.8386901,2 C16.1910046,2 16.8091323,8.04409639 16.8091323,15.5 C16.8091323,22.9559036 16.1910046,29 14.8386901,29 C13.4863756,29 12.8682479,22.9559036 12.8682479,15.5 C12.8682479,8.04409639 13.4863756,2 14.8386901,2 Z M20.1034554,10.5499504 C21.1683199,10.5499504 21.6551786,13.4711929 21.6551786,17.0749504 C21.6551786,20.6787079 21.1683199,23.5999504 20.1034554,23.5999504 C19.0384057,23.5999504 18.5517322,20.6787079 18.5517322,17.0749504 C18.5517322,13.4711929 19.0384057,10.5499504 20.1034554,10.5499504 Z M9.2930078,8.29996337 C10.3570146,8.30695451 10.8203401,11.1305596 10.7918839,14.6100306 C10.7634277,18.0895016 10.2539521,20.9069285 9.18994525,20.8999374 C8.12593842,20.8929463 7.66261298,18.0693412 7.69088677,14.5898702 C7.71952539,11.1103991 8.22900097,8.29297224 9.2930078,8.29996337 Z M25.7856968,16.1334629 C26.5616474,16.8434254 27.8620714,16.4175129 27.8620714,17.5249504 C27.8620714,18.6325504 26.5579126,18.2136254 25.7856968,18.9164379 C25.0134811,19.6192504 24.6874859,20.4499504 24.2112091,20.4499504 C23.5220484,20.4499504 23.2069018,19.1403629 23.2069018,17.5249504 C23.2069018,15.9095379 23.5220484,14.5999504 24.2112091,14.5999504 C24.6874859,14.5999504 25.0095685,15.4235004 25.7856968,16.1334629 Z M4.96783276,11.9563466 C5.77091326,11.9563466 6.13792855,13.8225529 6.13792855,15.5000966 C6.13792855,17.1774716 5.77091326,18.5375966 4.96783276,18.5375966 C3.884237,18.5375966 4.16569044,16.1047279 3.35623034,16.6526591 C2.61187979,17.1565466 2,16.0485341 2,14.9867591 C2,13.4745904 2.78975837,12.7157216 3.39038002,13.4460716 C4.24806249,14.4889466 3.79041918,11.9563466 4.96783276,11.9563466 Z M32,17.2999504 C32,18.0455824 31.4210062,18.6499504 30.7068973,18.6499504 C29.9927885,18.6499504 29.4137947,18.0455824 29.4137947,17.2999504 C29.4137947,16.5543184 29.9927885,15.9499504 30.7068973,15.9499504 C31.4210062,15.9499504 32,16.5543184 32,17.2999504 Z" id="path-1"></path>
    </defs>
    <g id="Icon-/-top" stroke="none" stroke-width="1" fill="none" fill-rule="evenodd">
        <mask id="mask-2" fill="white">
            <use xlink:href="#path-1"></use>
        </mask>
        <use id="Mask" fill="#F6F6F6" opacity="0.600000024" xlink:href="#path-1"></use>
        <g id="Bg-/-base-/-color#primary" mask="url(#mask-2)" fill="#0072EE">
            <rect id="Rectangle-2" x="0" y="0" width="32" height="32"></rect>
        </g>
    </g>
</svg>