<?xml version="1.0" encoding="UTF-8"?>
<svg width="218px" height="46px" viewBox="0 0 218 46" version="1.1" xmlns="http://www.w3.org/2000/svg" xmlns:xlink="http://www.w3.org/1999/xlink">
    <!-- Generator: Sketch 50.2 (55047) - http://www.bohemiancoding.com/sketch -->
    <title>Group</title>
    <desc>Created with Sketch.</desc>
    <defs></defs>
    <g id="Symbols" stroke="none" stroke-width="1" fill="none" fill-rule="evenodd">
        <g id="Logo-/-icon+typo" transform="translate(-3.000000, -6.000000)" fill="#333333">
            <g id="Group">
                <g id="Logo-/-logo-typo" transform="translate(62.000000, 0.000000)">
                    <g id="Logo" transform="translate(1.250000, 7.500000)">
                        <path d="M8.55712891,33.75 L8.55712891,43.9013672 L6.25,43.9013672 L6.25,33.75 L8.55712891,33.75 Z M9.59960938,38.2958984 C9.93001467,37.760414 10.5623326,37.3673515 11.496582,37.1166992 L17.1362305,35.6469727 L17.1362305,37.9882812 L11.9067383,39.3383789 C11.576333,39.4637051 11.4168294,39.6801742 11.4282227,39.987793 C11.4168294,40.2954117 11.576333,40.5118809 11.9067383,40.637207 L17.1362305,42.0043945 L17.1362305,44.3969727 L11.496582,42.8588867 C10.5509393,42.5968411 9.91577311,42.1980821 9.59106445,41.6625977 C9.2663558,41.1271132 9.10400391,40.5688506 9.10400391,39.987793 C9.10400391,39.4067354 9.26920408,38.8427762 9.59960938,38.2958984 Z M31.9628906,43.8842773 C30.9602814,43.8500975 30.2026393,43.6136903 29.6899414,43.1750488 C29.1772435,42.7364073 28.8069673,42.2408068 28.5791016,41.6882324 C28.3512358,41.135658 28.2373047,40.5745471 28.2373047,40.0048828 C28.2373047,39.4124319 28.3483876,38.8399279 28.5705566,38.2873535 C28.7927257,37.7347791 29.163002,37.2391786 29.6813965,36.8005371 C30.199791,36.3618956 30.8577434,36.1368816 31.6552734,36.1254883 L37.1923828,36.1254883 C37.9899128,36.1368816 38.6478652,36.3618956 39.1662598,36.8005371 C39.6846543,37.2391786 40.0549305,37.7347791 40.2770996,38.2873535 C40.4992687,38.8399279 40.6103516,39.4124319 40.6103516,40.0048828 C40.6103516,40.5745471 40.4964204,41.135658 40.2685547,41.6882324 C40.040689,42.2408068 39.6704127,42.7364073 39.1577148,43.1750488 C38.645017,43.6136903 37.8873748,43.8500975 36.8847656,43.8842773 L31.9628906,43.8842773 Z M31.5869141,38.4155273 C31.3704416,38.4155273 31.1824552,38.503824 31.0229492,38.6804199 C30.8634432,38.8570159 30.7466638,39.0620919 30.6726074,39.2956543 C30.5985511,39.5292167 30.5615234,39.7599272 30.5615234,39.987793 C30.5615234,40.227052 30.5985511,40.4634591 30.6726074,40.6970215 C30.7466638,40.9305839 30.8634432,41.1356599 31.0229492,41.3122559 C31.1824552,41.4888518 31.3704416,41.582845 31.5869141,41.5942383 L37.2607422,41.5942383 C37.4772146,41.582845 37.665201,41.4888518 37.824707,41.3122559 C37.984213,41.1356599 38.1009925,40.9305839 38.1750488,40.6970215 C38.2491052,40.4634591 38.2861328,40.227052 38.2861328,39.987793 C38.2861328,39.7599272 38.2491052,39.5292167 38.1750488,39.2956543 C38.1009925,39.0620919 37.984213,38.8570159 37.824707,38.6804199 C37.665201,38.503824 37.4772146,38.4155273 37.2607422,38.4155273 L31.5869141,38.4155273 Z M55.3857422,43.8842773 C54.383133,43.8500975 53.6254908,43.6136903 53.112793,43.1750488 C52.6000951,42.7364073 52.2298188,42.2408068 52.0019531,41.6882324 C51.7740874,41.135658 51.6601562,40.5745471 51.6601562,40.0048828 C51.6601562,39.4124319 51.7712391,38.8399279 51.9934082,38.2873535 C52.2155773,37.7347791 52.5858535,37.2391786 53.104248,36.8005371 C53.6226426,36.3618956 54.280595,36.1368816 55.078125,36.1254883 L62.4609375,36.1254883 L62.4609375,38.2958984 L55.1806641,38.2958984 C54.9300118,38.2958984 54.7106943,38.3813468 54.5227051,38.5522461 C54.3347159,38.7231454 54.1979985,38.9453111 54.1125488,39.21875 C54.0270992,39.4921889 53.984375,39.7599271 53.984375,40.0219727 C53.984375,40.3068048 54.0270992,40.5859361 54.1125488,40.859375 C54.1979985,41.1328139 54.3347159,41.3521313 54.5227051,41.517334 C54.7106943,41.6825366 54.9300118,41.7708333 55.1806641,41.7822266 L62.4609375,41.7822266 L62.4609375,43.8842773 L55.3857422,43.8842773 Z M62.4609375,40.7568359 L55.1635742,40.7568359 L55.1635742,39.2016602 L62.4609375,39.2016602 L62.4609375,40.7568359 Z M78.5986328,43.8842773 C77.5960236,43.8500975 76.8383815,43.6136903 76.3256836,43.1750488 C75.8129857,42.7364073 75.4427095,42.2408068 75.2148438,41.6882324 C74.986978,41.135658 74.8730469,40.5745471 74.8730469,40.0048828 C74.8730469,39.4124319 74.9841297,38.8399279 75.2062988,38.2873535 C75.4284679,37.7347791 75.7987442,37.2391786 76.3171387,36.8005371 C76.8355332,36.3618956 77.4934856,36.1368816 78.2910156,36.1254883 L85.7421875,36.1254883 L85.7421875,38.4155273 L78.2226563,38.4155273 C78.0061838,38.4155273 77.8181974,38.503824 77.6586914,38.6804199 C77.4991854,38.8570159 77.382406,39.0620919 77.3083496,39.2956543 C77.2342932,39.5292167 77.1972656,39.7599272 77.1972656,39.987793 C77.1972656,40.227052 77.2342932,40.4634591 77.3083496,40.6970215 C77.382406,40.9305839 77.4991854,41.1356599 77.6586914,41.3122559 C77.8181974,41.4888518 78.0061838,41.582845 78.2226563,41.5942383 L85.7421875,41.5942383 L85.7421875,43.8842773 L78.5986328,43.8842773 Z M106.704102,43.9355469 L106.704102,38.8598633 C106.704102,38.5750311 106.555991,38.4269206 106.259766,38.4155273 L100.27832,38.4155273 C100.061848,38.4269206 99.8738615,38.5209138 99.7143555,38.6975098 C99.5548495,38.8741057 99.43807,39.0791818 99.3640137,39.3127441 C99.2899573,39.5463065 99.2529297,39.7827136 99.2529297,40.0219727 C99.2529297,40.2498384 99.2899573,40.480549 99.3640137,40.7141113 C99.43807,40.9476737 99.5548495,41.1527498 99.7143555,41.3293457 C99.8738615,41.5059416 100.061848,41.5942383 100.27832,41.5942383 L105.610352,41.5942383 L105.610352,43.8842773 L100.34668,43.8842773 C99.5491497,43.8728841 98.8911973,43.64787 98.3728027,43.2092285 C97.8544082,42.770587 97.484132,42.2749865 97.2619629,41.7224121 C97.0397938,41.1698377 96.9287109,40.5973337 96.9287109,40.0048828 C96.9287109,39.4352185 97.0426421,38.8741076 97.2705078,38.3215332 C97.4983735,37.7689588 97.8686498,37.2733583 98.3813477,36.8347168 C98.8940455,36.3960753 99.6516877,36.1596681 100.654297,36.1254883 L107.832031,36.1254883 C108.151043,36.1254883 108.424478,36.2308746 108.652344,36.4416504 C108.880209,36.6524262 108.999837,36.9173161 109.01123,37.2363281 L109.01123,43.9355469 L106.704102,43.9355469 Z M131.408691,38.1079102 L122.880859,38.1079102 C122.732747,38.1079102 122.613119,38.1363929 122.521973,38.1933594 C122.430826,38.2503258 122.362468,38.3101397 122.316895,38.3728027 C122.271321,38.4354658 122.248535,38.4895831 122.248535,38.5351562 C122.248535,38.5921227 122.271321,38.6519365 122.316895,38.7145996 C122.362468,38.7772627 122.430826,38.8342283 122.521973,38.885498 C122.613119,38.9367678 122.732747,38.9680989 122.880859,38.9794922 L128.469238,38.9794922 C129.187015,38.9908855 129.779457,39.1304511 130.246582,39.3981934 C130.713707,39.6659356 131.046955,39.9792463 131.246338,40.3381348 C131.44572,40.6970233 131.54541,41.0587547 131.54541,41.4233398 C131.54541,41.7765317 131.442872,42.1325666 131.237793,42.4914551 C131.032714,42.8503436 130.699465,43.1636543 130.238037,43.4313965 C129.776609,43.6991387 129.187015,43.8330078 128.469238,43.8330078 C128.343912,43.8444011 128.252767,43.8500977 128.195801,43.8500977 L120.266113,43.8500977 L120.266113,41.8847656 L128.605957,41.8847656 C128.776856,41.8961589 128.916422,41.8733727 129.024658,41.8164062 C129.132894,41.7594398 129.215495,41.6967777 129.272461,41.628418 C129.329427,41.5600583 129.35791,41.4916996 129.35791,41.4233398 C129.35791,41.38916 129.329427,41.3293461 129.272461,41.2438965 C129.215495,41.1584468 129.132894,41.0900881 129.024658,41.0388184 C128.916422,40.9875486 128.776856,40.9562175 128.605957,40.9448242 L123.000488,40.9448242 C122.339678,40.9334309 121.792808,40.7938653 121.359863,40.526123 C120.926918,40.2583808 120.619304,39.9479184 120.437012,39.5947266 C120.254719,39.2415347 120.163574,38.8883481 120.163574,38.5351562 C120.163574,38.1819644 120.257567,37.8316261 120.445557,37.4841309 C120.633546,37.1366356 120.94116,36.8347181 121.368408,36.5783691 C121.795656,36.3220202 122.339678,36.1824545 123.000488,36.159668 C123.114421,36.1482747 123.19987,36.1425781 123.256836,36.1425781 L131.408691,36.1425781 L131.408691,38.1079102 Z M145.222168,33.75 L145.222168,36.1254883 L151.989746,36.1254883 L151.989746,38.4155273 L145.222168,38.4155273 L145.222168,38.7573242 C145.210775,39.224449 145.242106,39.6545391 145.316162,40.0476074 C145.390218,40.4406758 145.56966,40.7910141 145.854492,41.0986328 C146.139324,41.4062515 146.498207,41.5714517 146.931152,41.5942383 L152.058105,41.5942383 L152.058105,43.8842773 L146.350098,43.8842773 C145.552568,43.8387042 144.894615,43.5681177 144.376221,43.0725098 C143.857826,42.5769018 143.484702,41.9702184 143.256836,41.2524414 C143.040364,40.5346644 142.926432,39.7713257 142.915039,38.9624023 L142.915039,38.4155273 L139.924316,38.4155273 L139.924316,36.1254883 L142.915039,36.1254883 L142.915039,33.75 L145.222168,33.75 Z" id="koecast"></path>
                        <path d="M14.8132324,11.6821289 L19.2126465,7.28271484 L1.24145508,7.28271484 L1.24145508,1.6796875 L26.2268066,1.6796875 C27.0015501,1.6796875 27.665606,1.94254294 28.2189941,2.46826172 C28.7447129,3.04931931 29.0075684,3.71337517 29.0075684,4.46044922 C29.0075684,4.95849858 28.8968924,5.41503699 28.6755371,5.83007812 L22.4084473,11.6821289 L14.8132324,11.6821289 Z M7.17651367,18.28125 C12.267685,21.2142074 17.3587799,21.2003729 22.4499512,18.2397461 L25.3552246,23.2617188 C18.3271947,27.744163 11.2992702,27.744163 4.27124023,23.2617188 L7.17651367,18.28125 Z M52.166748,3.58886719 C52.3327645,3.58886719 52.4987785,3.60270168 52.6647949,3.63037109 L52.9138184,3.63037109 C54.850677,3.68570991 56.4416442,4.10766207 57.6867676,4.89624023 C58.931891,5.6848184 59.8311333,6.58406071 60.3845215,7.59399414 C60.9379097,8.60392758 61.2145996,9.62076311 61.2145996,10.6445312 C61.2145996,11.6959688 60.9448269,12.7266388 60.4052734,13.7365723 C59.86572,14.7465057 58.9733949,15.6388308 57.7282715,16.4135742 C56.5384869,17.1606483 54.6431608,17.5618487 52.0422363,17.6171875 L48.3898926,17.6171875 C48.7495949,18.3642615 49.0816228,18.9314759 49.3859863,19.3188477 C49.9670439,20.1212605 50.7279413,20.5501299 51.6687012,20.6054688 L60.7165527,20.6054688 L60.7165527,26.1669922 L50.423584,26.1669922 C48.4590559,26.0563146 46.8957578,25.0325618 45.7336426,23.0957031 C44.8205521,21.5738856 43.9628133,19.9275805 43.1604004,18.1567383 C42.8006981,18.3227547 42.4686701,18.5164377 42.1643066,18.737793 C41.2235467,19.4571976 40.5594909,20.190426 40.1721191,20.9375 L36.4367676,26.9140625 L31.9958496,23.7182617 L35.8972168,17.4511719 C36.8379767,15.901685 38.1245849,14.6081595 39.7570801,13.5705566 C41.3895752,12.5329538 43.0082114,12.0279947 44.6130371,12.0556641 L53.7023926,12.0556641 C54.1174337,12.0556641 54.4563789,11.9726571 54.7192383,11.8066406 C54.9820977,11.6406242 55.1757806,11.4538585 55.300293,11.2463379 C55.4248053,11.0388173 55.4870605,10.8243826 55.4870605,10.6030273 C55.4870605,10.4093415 55.4248053,10.2087413 55.300293,10.0012207 C55.1757806,9.79370013 54.9820977,9.60693442 54.7192383,9.44091797 C54.4563789,9.27490151 54.1174337,9.17806003 53.7023926,9.15039062 L33.3239746,9.15039062 L33.3239746,3.58886719 L44.197998,3.58886719 L44.197998,0.891113281 L49.8010254,0.891113281 L49.8010254,3.58886719 L52.166748,3.58886719 Z M66.1950684,5 L76.6125488,5 L76.2805176,1.05712891 L81.8835449,1.05712891 L82.2155762,5 L94.1687012,5 L94.1687012,10.5615234 L82.7966309,10.5615234 L83.2116699,14.8779297 L94.1687012,14.8779297 L94.1687012,20.4394531 L83.7512207,20.4394531 L84.2907715,26.2084961 L78.6877441,26.2084961 L78.1481934,20.4394531 L66.1950684,20.4394531 L66.1950684,14.8779297 L77.6086426,14.8779297 L77.1936035,10.5615234 L66.1950684,10.5615234 L66.1950684,5 Z M99.3151855,7.61474609 L103.631592,7.61474609 L103.631592,5.95458984 L108.114014,5.95458984 L108.114014,7.61474609 L115.501709,7.61474609 C115.640056,7.61474609 115.778401,7.62858059 115.916748,7.65625 L116.082764,7.65625 C117.632251,7.68391941 118.905024,8.09203707 119.901123,8.88061523 C120.897222,9.6691934 121.616616,10.5615185 122.059326,11.5576172 C122.502037,12.5537159 122.723389,13.5636342 122.723389,14.5874023 C122.723389,15.6388399 122.508954,16.6625927 122.080078,17.6586914 C121.651202,18.6547901 120.931808,19.5471152 119.921875,20.3356934 C118.911942,21.1242715 117.632251,21.5047202 116.082764,21.4770508 L111.268311,21.4770508 L111.268311,17.0361328 L116.290283,17.0361328 C116.705324,17.0361328 117.051187,16.8977878 117.327881,16.6210938 C117.604575,16.3443997 117.812092,16.0262062 117.950439,15.6665039 C118.088786,15.3068016 118.157959,14.9332702 118.157959,14.5458984 C118.157959,14.1861961 118.088786,13.8264992 117.950439,13.4667969 C117.812092,13.1070946 117.604575,12.7889011 117.327881,12.512207 C117.051187,12.2355129 116.705324,12.0833335 116.290283,12.0556641 L108.114014,12.0556641 L108.114014,26.1669922 L103.631592,26.1669922 L103.631592,12.0556641 L99.3151855,12.0556641 L99.3151855,7.61474609 Z M128.201904,1.6796875 L154.971924,1.6796875 C155.746667,1.6796875 156.300047,1.94254294 156.63208,2.46826172 C156.881105,3.0216499 156.839601,3.68570576 156.507568,4.46044922 C156.286213,4.95849858 155.96802,5.41503699 155.552979,5.83007812 L145.882568,14.9194336 L157.794189,26.1669922 L149.61792,26.1669922 L141.815186,18.6962891 L133.763428,26.25 L126.45874,26.25 L146.422119,7.24121094 L128.201904,7.24121094 L128.201904,1.6796875 Z" id="こえキャス"></path>
                    </g>
                </g>
                <g id="Logo-/-logo-icon" transform="translate(0.000000, 2.000000)">
                    <path d="M25.9676897,4.3750836 C28.3342414,4.3750836 29.4159655,14.5605053 29.4159655,27.1250836 C29.4159655,39.6896619 28.3342414,49.8750836 25.9676897,49.8750836 C23.6011379,49.8750836 22.5194138,39.6896619 22.5194138,27.1250836 C22.5194138,14.5605053 23.6011379,4.3750836 25.9676897,4.3750836 Z M35.1810345,18.7833333 C37.0445485,18.7833333 37.8965517,23.7061679 37.8965517,29.7791667 C37.8965517,35.8521654 37.0445485,40.775 35.1810345,40.775 C33.3171963,40.775 32.4655172,35.8521654 32.4655172,29.7791667 C32.4655172,23.7061679 33.3171963,18.7833333 35.1810345,18.7833333 Z M16.2627398,14.9916885 C18.1247529,15.0034699 18.9355729,19.7617674 18.8857745,25.6253204 C18.8359761,31.4888734 17.9443933,36.2367595 16.0823802,36.2249781 C14.2203672,36.2131968 13.4095472,31.4548993 13.4590263,25.5913463 C13.509144,19.7277933 14.4007268,14.9799072 16.2627398,14.9916885 Z M45.1249629,28.1925859 C46.4828772,29.3890042 48.7586207,28.6712627 48.7586207,30.5375 C48.7586207,32.4040111 46.4763413,31.6980449 45.1249629,32.8824141 C43.7735846,34.0667833 43.2030926,35.4666667 42.3696077,35.4666667 C41.1635757,35.4666667 40.612069,33.2597692 40.612069,30.5375 C40.612069,27.8152308 41.1635757,25.6083333 42.3696077,25.6083333 C43.2030926,25.6083333 43.7667375,26.9961676 45.1249629,28.1925859 Z M8.69367897,21.1533715 C10.0990707,21.1533715 10.7413478,24.2982746 10.7413478,27.1252465 C10.7413478,29.951934 10.0990707,32.2439965 8.69367897,32.2439965 C6.79738524,32.2439965 7.28992907,28.1441621 5.87337303,29.0675277 C4.57075879,29.9166715 3.49996852,28.0494652 3.49996852,26.2601777 C3.49996852,23.7118933 4.88204649,22.433059 5.93313501,23.663834 C7.43408022,25.4212715 6.63320397,21.1533715 8.69367897,21.1533715 Z M56,30.1583333 C56,31.4148613 54.9867602,32.4333333 53.737069,32.4333333 C52.4873777,32.4333333 51.4741379,31.4148613 51.4741379,30.1583333 C51.4741379,28.9018053 52.4873777,27.8833333 53.737069,27.8833333 C54.9867602,27.8833333 56,28.9018053 56,30.1583333 Z" id="Fill-1"></path>
                </g>
            </g>
        </g>
    </g>
</svg>