<?xml version="1.0" encoding="UTF-8"?>
<svg width="95px" height="77px" viewBox="0 0 95 77" version="1.1" xmlns="http://www.w3.org/2000/svg" xmlns:xlink="http://www.w3.org/1999/xlink">
    <!-- Generator: Sketch 50.2 (55047) - http://www.bohemiancoding.com/sketch -->
    <title>Group</title>
    <desc>Created with Sketch.</desc>
    <defs></defs>
    <g id="Symbols" stroke="none" stroke-width="1" fill="none" fill-rule="evenodd">
        <g id="Module-/-footer" transform="translate(-141.000000, -263.000000)" fill="#F6F6F6">
            <g id="Group">
                <g transform="translate(140.000000, 260.000000)">
                    <g id="Logo-/-logo-icon#light-gray" opacity="0.400000006" transform="translate(24.000000, 0.000000)">
                        <path d="M22.2580197,3.75007166 C24.2864926,3.75007166 25.2136847,12.4804331 25.2136847,23.2500717 C25.2136847,34.0197102 24.2864926,42.7500717 22.2580197,42.7500717 C20.2295468,42.7500717 19.3023547,34.0197102 19.3023547,23.2500717 C19.3023547,12.4804331 20.2295468,3.75007166 22.2580197,3.75007166 Z M30.1551724,16.1 C31.7524701,16.1 32.4827586,20.3195725 32.4827586,25.525 C32.4827586,30.7304275 31.7524701,34.95 30.1551724,34.95 C28.5575968,34.95 27.8275862,30.7304275 27.8275862,25.525 C27.8275862,20.3195725 28.5575968,16.1 30.1551724,16.1 Z M13.9394913,12.8500188 C15.5355025,12.8601171 16.230491,16.9386578 16.1878067,21.9645603 C16.1451224,26.9904629 15.3809085,31.0600796 13.7848974,31.0499812 C12.1888862,31.0398829 11.4938976,26.9613422 11.5363083,21.9354397 C11.5792662,16.9095371 12.3434801,12.8399204 13.9394913,12.8500188 Z M38.6785397,24.1650736 C39.8424662,25.190575 41.7931034,24.5753681 41.7931034,26.175 C41.7931034,27.7748667 39.8368639,27.1697528 38.6785397,28.1849264 C37.5202154,29.2001 37.0312222,30.4 36.3168066,30.4 C35.2830649,30.4 34.8103448,28.5083736 34.8103448,26.175 C34.8103448,23.8416264 35.2830649,21.95 36.3168066,21.95 C37.0312222,21.95 37.5143464,23.1395722 38.6785397,24.1650736 Z M7.45172483,18.1314612 C8.6563463,18.1314612 9.20686957,20.8270925 9.20686957,23.2502112 C9.20686957,25.6730862 8.6563463,27.6377112 7.45172483,27.6377112 C5.82633021,27.6377112 6.24851063,24.1235675 5.03431974,24.9150237 C3.91779325,25.6428612 2.99997301,24.0423987 2.99997301,22.5087237 C2.99997301,20.32448 4.18461128,19.2283362 5.08554429,20.2832862 C6.37206876,21.7896612 5.6856034,18.1314612 7.45172483,18.1314612 Z M48,25.85 C48,26.927024 47.1315087,27.8 46.0603448,27.8 C44.9891809,27.8 44.1206897,26.927024 44.1206897,25.85 C44.1206897,24.772976 44.9891809,23.9 46.0603448,23.9 C47.1315087,23.9 48,24.772976 48,25.85 Z" id="Fill-1"></path>
                    </g>
                    <g id="Logo-/-logo-typo#light-gray" opacity="0.397504664" transform="translate(0.000000, 48.000000)">
                        <g id="Logo" transform="translate(0.750000, 4.500000)">
                            <path d="M5.13427734,20.25 L5.13427734,26.3408203 L3.75,26.3408203 L3.75,20.25 L5.13427734,20.25 Z M5.75976562,22.9775391 C5.9580088,22.6562484 6.33739954,22.4204109 6.89794922,22.2700195 L10.2817383,21.3881836 L10.2817383,22.7929688 L7.14404297,23.6030273 C6.94579979,23.678223 6.85009762,23.8081045 6.85693359,23.9926758 C6.85009762,24.177247 6.94579979,24.3071285 7.14404297,24.3823242 L10.2817383,25.2026367 L10.2817383,26.6381836 L6.89794922,25.715332 C6.33056357,25.5581047 5.94946386,25.3188493 5.75463867,24.9975586 C5.55981348,24.6762679 5.46240234,24.3413103 5.46240234,23.9926758 C5.46240234,23.6440412 5.56152245,23.3056657 5.75976562,22.9775391 Z M19.1777344,26.3305664 C18.5761689,26.3100585 18.1215836,26.1682142 17.8139648,25.9050293 C17.5063461,25.6418444 17.2841804,25.3444841 17.1474609,25.0129395 C17.0107415,24.6813948 16.9423828,24.3447283 16.9423828,24.0029297 C16.9423828,23.6474592 17.0090325,23.3039567 17.142334,22.9724121 C17.2756354,22.6408675 17.4978012,22.3435072 17.8088379,22.0803223 C18.1198746,21.8171374 18.514646,21.6821289 18.9931641,21.675293 L22.3154297,21.675293 C22.7939477,21.6821289 23.1887191,21.8171374 23.4997559,22.0803223 C23.8107926,22.3435072 24.0329583,22.6408675 24.1662598,22.9724121 C24.2995612,23.3039567 24.3662109,23.6474592 24.3662109,24.0029297 C24.3662109,24.3447283 24.2978522,24.6813948 24.1611328,25.0129395 C24.0244134,25.3444841 23.8022476,25.6418444 23.4946289,25.9050293 C23.1870102,26.1682142 22.7324249,26.3100585 22.1308594,26.3305664 L19.1777344,26.3305664 Z M18.9521484,23.0493164 C18.822265,23.0493164 18.7094731,23.1022944 18.6137695,23.208252 C18.5180659,23.3142095 18.4479983,23.4372552 18.4035645,23.5773926 C18.3591306,23.71753 18.3369141,23.8559563 18.3369141,23.9926758 C18.3369141,24.1362312 18.3591306,24.2780755 18.4035645,24.4182129 C18.4479983,24.5583503 18.5180659,24.681396 18.6137695,24.7873535 C18.7094731,24.8933111 18.822265,24.949707 18.9521484,24.956543 L22.3564453,24.956543 C22.4863288,24.949707 22.5991206,24.8933111 22.6948242,24.7873535 C22.7905278,24.681396 22.8605955,24.5583503 22.9050293,24.4182129 C22.9494631,24.2780755 22.9716797,24.1362312 22.9716797,23.9926758 C22.9716797,23.8559563 22.9494631,23.71753 22.9050293,23.5773926 C22.8605955,23.4372552 22.7905278,23.3142095 22.6948242,23.208252 C22.5991206,23.1022944 22.4863288,23.0493164 22.3564453,23.0493164 L18.9521484,23.0493164 Z M33.2314453,26.3305664 C32.6298798,26.3100585 32.1752945,26.1682142 31.8676758,25.9050293 C31.5600571,25.6418444 31.3378913,25.3444841 31.2011719,25.0129395 C31.0644524,24.6813948 30.9960938,24.3447283 30.9960938,24.0029297 C30.9960938,23.6474592 31.0627435,23.3039567 31.1960449,22.9724121 C31.3293464,22.6408675 31.5515121,22.3435072 31.8625488,22.0803223 C32.1735855,21.8171374 32.568357,21.6821289 33.046875,21.675293 L37.4765625,21.675293 L37.4765625,22.9775391 L33.1083984,22.9775391 C32.9580071,22.9775391 32.8264166,23.0288081 32.713623,23.1313477 C32.6008295,23.2338872 32.5187991,23.3671867 32.4675293,23.53125 C32.4162595,23.6953133 32.390625,23.8559562 32.390625,24.0131836 C32.390625,24.1840829 32.4162595,24.3515617 32.4675293,24.515625 C32.5187991,24.6796883 32.6008295,24.8112788 32.713623,24.9104004 C32.8264166,25.009522 32.9580071,25.0625 33.1083984,25.0693359 L37.4765625,25.0693359 L37.4765625,26.3305664 L33.2314453,26.3305664 Z M37.4765625,24.4541016 L33.0981445,24.4541016 L33.0981445,23.5209961 L37.4765625,23.5209961 L37.4765625,24.4541016 Z M47.1591797,26.3305664 C46.5576142,26.3100585 46.1030289,26.1682142 45.7954102,25.9050293 C45.4877914,25.6418444 45.2656257,25.3444841 45.1289062,25.0129395 C44.9921868,24.6813948 44.9238281,24.3447283 44.9238281,24.0029297 C44.9238281,23.6474592 44.9904778,23.3039567 45.1237793,22.9724121 C45.2570807,22.6408675 45.4792465,22.3435072 45.7902832,22.0803223 C46.1013199,21.8171374 46.4960914,21.6821289 46.9746094,21.675293 L51.4453125,21.675293 L51.4453125,23.0493164 L46.9335938,23.0493164 C46.8037103,23.0493164 46.6909184,23.1022944 46.5952148,23.208252 C46.4995112,23.3142095 46.4294436,23.4372552 46.3850098,23.5773926 C46.3405759,23.71753 46.3183594,23.8559563 46.3183594,23.9926758 C46.3183594,24.1362312 46.3405759,24.2780755 46.3850098,24.4182129 C46.4294436,24.5583503 46.4995112,24.681396 46.5952148,24.7873535 C46.6909184,24.8933111 46.8037103,24.949707 46.9335938,24.956543 L51.4453125,24.956543 L51.4453125,26.3305664 L47.1591797,26.3305664 Z M64.0224609,26.3613281 L64.0224609,23.315918 C64.0224609,23.1450187 63.9335946,23.0561524 63.7558594,23.0493164 L60.1669922,23.0493164 C60.0371087,23.0561524 59.9243169,23.1125483 59.8286133,23.2185059 C59.7329097,23.3244634 59.662842,23.4475091 59.6184082,23.5876465 C59.5739744,23.7277839 59.5517578,23.8696282 59.5517578,24.0131836 C59.5517578,24.149903 59.5739744,24.2883294 59.6184082,24.4284668 C59.662842,24.5686042 59.7329097,24.6916499 59.8286133,24.7976074 C59.9243169,24.903565 60.0371087,24.956543 60.1669922,24.956543 L63.3662109,24.956543 L63.3662109,26.3305664 L60.2080078,26.3305664 C59.7294898,26.3237304 59.3347184,26.188722 59.0236816,25.9255371 C58.7126449,25.6623522 58.4904792,25.3649919 58.3571777,25.0334473 C58.2238763,24.7019026 58.1572266,24.3584002 58.1572266,24.0029297 C58.1572266,23.6611311 58.2255853,23.3244645 58.3623047,22.9929199 C58.4990241,22.6613753 58.7211899,22.364015 59.0288086,22.1008301 C59.3364273,21.8376452 59.7910126,21.6958009 60.3925781,21.675293 L64.6992188,21.675293 C64.890626,21.675293 65.0546868,21.7385248 65.1914062,21.8649902 C65.3281257,21.9914557 65.3999023,22.1503897 65.4067383,22.3417969 L65.4067383,26.3613281 L64.0224609,26.3613281 Z M78.8452148,22.8647461 L73.7285156,22.8647461 C73.639648,22.8647461 73.5678714,22.8818358 73.5131836,22.9160156 C73.4584958,22.9501955 73.4174806,22.9860838 73.3901367,23.0236816 C73.3627928,23.0612795 73.3491211,23.0937499 73.3491211,23.1210938 C73.3491211,23.1552736 73.3627928,23.1911619 73.3901367,23.2287598 C73.4174806,23.2663576 73.4584958,23.300537 73.5131836,23.3312988 C73.5678714,23.3620607 73.639648,23.3808593 73.7285156,23.3876953 L77.081543,23.3876953 C77.5122092,23.3945313 77.8676744,23.4782707 78.1479492,23.638916 C78.4282241,23.7995614 78.6281732,23.9875478 78.7478027,24.2028809 C78.8674322,24.418214 78.9272461,24.6352528 78.9272461,24.8540039 C78.9272461,25.065919 78.8657233,25.2795399 78.7426758,25.494873 C78.6196283,25.7102062 78.4196791,25.8981926 78.1428223,26.0588379 C77.8659654,26.2194832 77.5122092,26.2998047 77.081543,26.2998047 C77.0063473,26.3066407 76.9516603,26.3100586 76.9174805,26.3100586 L72.159668,26.3100586 L72.159668,25.1308594 L77.1635742,25.1308594 C77.2661138,25.1376953 77.3498532,25.1240236 77.4147949,25.0898438 C77.4797367,25.0556639 77.5292967,25.0180666 77.5634766,24.9770508 C77.5976564,24.936035 77.6147461,24.8950197 77.6147461,24.8540039 C77.6147461,24.833496 77.5976564,24.7976077 77.5634766,24.7463379 C77.5292967,24.6950681 77.4797367,24.6540529 77.4147949,24.623291 C77.3498532,24.5925291 77.2661138,24.5737305 77.1635742,24.5668945 L73.800293,24.5668945 C73.4038066,24.5600586 73.0756849,24.4763192 72.815918,24.3156738 C72.556151,24.1550285 72.3715826,23.9687511 72.262207,23.7568359 C72.1528315,23.5449208 72.0981445,23.3330089 72.0981445,23.1210938 C72.0981445,22.9091786 72.1545405,22.6989757 72.267334,22.4904785 C72.3801275,22.2819814 72.564696,22.1008308 72.8210449,21.9470215 C73.0773939,21.7932121 73.4038066,21.7094727 73.800293,21.6958008 C73.8686527,21.6889648 73.9199217,21.6855469 73.9541016,21.6855469 L78.8452148,21.6855469 L78.8452148,22.8647461 Z M87.1333008,20.25 L87.1333008,21.675293 L91.1938477,21.675293 L91.1938477,23.0493164 L87.1333008,23.0493164 L87.1333008,23.2543945 C87.1264648,23.5346694 87.1452634,23.7927234 87.1896973,24.0285645 C87.2341311,24.2644055 87.341796,24.4746085 87.5126953,24.6591797 C87.6835946,24.8437509 87.8989245,24.942871 88.1586914,24.956543 L91.2348633,24.956543 L91.2348633,26.3305664 L87.8100586,26.3305664 C87.3315406,26.3032225 86.9367691,26.1408706 86.6257324,25.8435059 C86.3146957,25.5461411 86.090821,25.1821311 85.9541016,24.7514648 C85.8242181,24.3207986 85.7558594,23.8627954 85.7490234,23.3774414 L85.7490234,23.0493164 L83.9545898,23.0493164 L83.9545898,21.675293 L85.7490234,21.675293 L85.7490234,20.25 L87.1333008,20.25 Z" id="koecast"></path>
                            <path d="M8.88793945,7.00927734 L11.5275879,4.36962891 L0.744873047,4.36962891 L0.744873047,1.0078125 L15.736084,1.0078125 C16.2009301,1.0078125 16.5993636,1.16552577 16.9313965,1.48095703 C17.2468277,1.82959159 17.404541,2.2280251 17.404541,2.67626953 C17.404541,2.97509915 17.3381354,3.24902219 17.2053223,3.49804688 L13.4450684,7.00927734 L8.88793945,7.00927734 Z M4.3059082,10.96875 C7.36061098,12.7285244 10.4152679,12.7202237 13.4699707,10.9438477 L15.2131348,13.9570312 C10.9963168,16.6464978 6.7795621,16.6464978 2.56274414,13.9570312 L4.3059082,10.96875 Z M31.3000488,2.15332031 C31.3996587,2.15332031 31.4992671,2.16162101 31.598877,2.17822266 L31.748291,2.17822266 C32.9104062,2.21142595 33.8649865,2.46459724 34.6120605,2.93774414 C35.3591346,3.41089104 35.89868,3.95043642 36.2307129,4.55639648 C36.5627458,5.16235655 36.7287598,5.77245787 36.7287598,6.38671875 C36.7287598,7.01758128 36.5668961,7.6359833 36.2431641,8.24194336 C35.919432,8.84790342 35.3840369,9.38329846 34.6369629,9.84814453 C33.9230921,10.296389 32.7858965,10.5371092 31.2253418,10.5703125 L29.0339355,10.5703125 C29.2497569,11.0185569 29.4489737,11.3588856 29.6315918,11.5913086 C29.9802264,12.0727563 30.4367648,12.330078 31.0012207,12.3632812 L36.4299316,12.3632812 L36.4299316,15.7001953 L30.2541504,15.7001953 C29.0754336,15.6337887 28.1374547,15.0195371 27.4401855,13.8574219 C26.8923312,12.9443314 26.377688,11.9565483 25.8962402,10.894043 C25.6804188,10.9936528 25.4812021,11.1098626 25.298584,11.2426758 C24.734128,11.6743186 24.3356945,12.1142556 24.1032715,12.5625 L21.8620605,16.1484375 L19.1975098,14.230957 L21.5383301,10.4707031 C22.102786,9.54101098 22.874751,8.76489569 23.854248,8.14233398 C24.8337451,7.51977228 25.8049268,7.21679679 26.7678223,7.23339844 L32.2214355,7.23339844 C32.4704602,7.23339844 32.6738273,7.18359425 32.831543,7.08398438 C32.9892586,6.9843745 33.1054684,6.87231508 33.1801758,6.74780273 C33.2548832,6.62329039 33.2922363,6.49462957 33.2922363,6.36181641 C33.2922363,6.24560489 33.2548832,6.12524476 33.1801758,6.00073242 C33.1054684,5.87622008 32.9892586,5.76416065 32.831543,5.66455078 C32.6738273,5.56494091 32.4704602,5.50683602 32.2214355,5.49023438 L19.9943848,5.49023438 L19.9943848,2.15332031 L26.5187988,2.15332031 L26.5187988,0.534667969 L29.8806152,0.534667969 L29.8806152,2.15332031 L31.3000488,2.15332031 Z M39.717041,3 L45.9675293,3 L45.7683105,0.634277344 L49.130127,0.634277344 L49.3293457,3 L56.5012207,3 L56.5012207,6.33691406 L49.6779785,6.33691406 L49.927002,8.92675781 L56.5012207,8.92675781 L56.5012207,12.2636719 L50.2507324,12.2636719 L50.5744629,15.7250977 L47.2126465,15.7250977 L46.888916,12.2636719 L39.717041,12.2636719 L39.717041,8.92675781 L46.5651855,8.92675781 L46.3161621,6.33691406 L39.717041,6.33691406 L39.717041,3 Z M59.5891113,4.56884766 L62.1789551,4.56884766 L62.1789551,3.57275391 L64.8684082,3.57275391 L64.8684082,4.56884766 L69.3010254,4.56884766 C69.3840336,4.56884766 69.4670406,4.57714835 69.5500488,4.59375 L69.6496582,4.59375 C70.5793504,4.61035165 71.3430146,4.85522224 71.9406738,5.32836914 C72.5383331,5.80151604 72.9699694,6.33691107 73.2355957,6.93457031 C73.501222,7.53222955 73.6340332,8.13818052 73.6340332,8.75244141 C73.6340332,9.38330394 73.5053724,9.99755561 73.2480469,10.5952148 C72.9907214,11.1928741 72.5590851,11.7282691 71.953125,12.201416 C71.3471649,12.6745629 70.5793504,12.9028321 69.6496582,12.8862305 L66.7609863,12.8862305 L66.7609863,10.2216797 L69.7741699,10.2216797 C70.0231946,10.2216797 70.2307121,10.1386727 70.3967285,9.97265625 C70.562745,9.80663979 70.6872554,9.61572374 70.7702637,9.39990234 C70.8532719,9.18408095 70.8947754,8.9599621 70.8947754,8.72753906 C70.8947754,8.51171767 70.8532719,8.29589952 70.7702637,8.08007812 C70.6872554,7.86425673 70.562745,7.67334067 70.3967285,7.50732422 C70.2307121,7.34130776 70.0231946,7.25000008 69.7741699,7.23339844 L64.8684082,7.23339844 L64.8684082,15.7001953 L62.1789551,15.7001953 L62.1789551,7.23339844 L59.5891113,7.23339844 L59.5891113,4.56884766 Z M76.9211426,1.0078125 L92.9831543,1.0078125 C93.4480004,1.0078125 93.7800283,1.16552577 93.979248,1.48095703 C94.1286629,1.81298994 94.1037608,2.21142346 93.904541,2.67626953 C93.7717279,2.97509915 93.5808118,3.24902219 93.3317871,3.49804688 L87.529541,8.95166016 L94.6765137,15.7001953 L89.770752,15.7001953 L85.0891113,11.2177734 L80.2580566,15.75 L75.8752441,15.75 L87.8532715,4.34472656 L76.9211426,4.34472656 L76.9211426,1.0078125 Z" id="こえキャス"></path>
                        </g>
                    </g>
                </g>
            </g>
        </g>
    </g>
</svg>