<?xml version="1.0" encoding="UTF-8"?>
<svg width="146px" height="31px" viewBox="0 0 146 31" version="1.1" xmlns="http://www.w3.org/2000/svg" xmlns:xlink="http://www.w3.org/1999/xlink">
    <!-- Generator: Sketch 50.2 (55047) - http://www.bohemiancoding.com/sketch -->
    <title>Logo / icon+typo@dark</title>
    <desc>Created with Sketch.</desc>
    <defs></defs>
    <g id="Symbols" stroke="none" stroke-width="1" fill="none" fill-rule="evenodd">
        <g id="Module-/-header" transform="translate(-114.000000, -14.000000)" fill="#F6F6F6">
            <g id="Header">
                <g id="Logo-/-icon+typo@dark" transform="translate(112.000000, 10.000000)">
                    <g id="Logo-/-logo-typo#light-gray" transform="translate(41.333333, 0.000000)" stroke-width="1">
                        <g id="Logo" transform="translate(0.835938, 5.000000)">
                            <path d="M5.72257996,22.5 L5.72257996,29.2675781 L4.1796875,29.2675781 L4.1796875,22.5 L5.72257996,22.5 Z M6.41973877,25.530599 C6.64069731,25.1736093 7.06355991,24.9115677 7.68833923,24.7444661 L11.4598541,23.7646484 L11.4598541,25.3255208 L7.96263123,26.2255859 C7.74167268,26.3091367 7.63500464,26.4534495 7.6426239,26.6585286 C7.63500464,26.8636078 7.74167268,27.0079206 7.96263123,27.0914714 L11.4598541,28.0029297 L11.4598541,29.5979818 L7.68833923,28.5725911 C7.05594064,28.3978941 6.63117327,28.1320547 6.41402435,27.7750651 C6.19687544,27.4180755 6.08830261,27.0459004 6.08830261,26.6585286 C6.08830261,26.2711569 6.19878023,25.8951841 6.41973877,25.530599 Z M21.3751831,29.2561849 C20.7046882,29.2333983 20.198015,29.0757936 19.8551483,28.7833659 C19.5122816,28.4909382 19.2646594,28.1605379 19.1122742,27.7921549 C18.959889,27.423772 18.8836975,27.0496981 18.8836975,26.6699219 C18.8836975,26.2749546 18.9579842,25.8932853 19.1065598,25.5249023 C19.2551353,25.1565194 19.5027576,24.8261191 19.8494339,24.5336914 C20.1961102,24.2412637 20.6361159,24.0912544 21.1694641,24.0836589 L24.872406,24.0836589 C25.4057542,24.0912544 25.8457599,24.2412637 26.1924362,24.5336914 C26.5391126,24.8261191 26.7867348,25.1565194 26.9353104,25.5249023 C27.0838859,25.8932853 27.1581726,26.2749546 27.1581726,26.6699219 C27.1581726,27.0496981 27.0819811,27.423772 26.9295959,27.7921549 C26.7772107,28.1605379 26.5295885,28.4909382 26.1867218,28.7833659 C25.8438551,29.0757936 25.3371819,29.2333983 24.666687,29.2561849 L21.3751831,29.2561849 Z M21.1237488,25.6103516 C20.9789828,25.6103516 20.8532669,25.669216 20.7465973,25.7869466 C20.6399276,25.9046772 20.5618314,26.0413946 20.5123062,26.1971029 C20.462781,26.3528111 20.4380188,26.5066182 20.4380188,26.6585286 C20.4380188,26.8180347 20.462781,26.9756394 20.5123062,27.1313477 C20.5618314,27.2870559 20.6399276,27.4237733 20.7465973,27.5415039 C20.8532669,27.6592345 20.9789828,27.7218967 21.1237488,27.7294922 L24.9181213,27.7294922 C25.0628873,27.7218967 25.1886032,27.6592345 25.2952728,27.5415039 C25.4019425,27.4237733 25.4800387,27.2870559 25.5295639,27.1313477 C25.5790891,26.9756394 25.6038513,26.8180347 25.6038513,26.6585286 C25.6038513,26.5066182 25.5790891,26.3528111 25.5295639,26.1971029 C25.4800387,26.0413946 25.4019425,25.9046772 25.2952728,25.7869466 C25.1886032,25.669216 25.0628873,25.6103516 24.9181213,25.6103516 L21.1237488,25.6103516 Z M37.0392151,29.2561849 C36.3687202,29.2333983 35.862047,29.0757936 35.5191803,28.7833659 C35.1763136,28.4909382 34.9286914,28.1605379 34.7763062,27.7921549 C34.623921,27.423772 34.5477295,27.0496981 34.5477295,26.6699219 C34.5477295,26.2749546 34.6220162,25.8932853 34.7705917,25.5249023 C34.9191673,25.1565194 35.1667895,24.8261191 35.5134659,24.5336914 C35.8601422,24.2412637 36.3001479,24.0912544 36.8334961,24.0836589 L41.770752,24.0836589 L41.770752,25.530599 L36.9020691,25.530599 C36.7344454,25.530599 36.5877768,25.5875645 36.462059,25.7014974 C36.3363412,25.8154303 36.2449115,25.9635408 36.187767,26.1458333 C36.1306226,26.3281259 36.1020508,26.5066181 36.1020508,26.6813151 C36.1020508,26.8712032 36.1306226,27.0572908 36.187767,27.2395833 C36.2449115,27.4218759 36.3363412,27.5680876 36.462059,27.6782227 C36.5877768,27.7883578 36.7344454,27.8472222 36.9020691,27.8548177 L41.770752,27.8548177 L41.770752,29.2561849 L37.0392151,29.2561849 Z M41.770752,27.171224 L36.8906403,27.171224 L36.8906403,26.1344401 L41.770752,26.1344401 L41.770752,27.171224 Z M52.5628357,29.2561849 C51.8923408,29.2333983 51.3856676,29.0757936 51.0428009,28.7833659 C50.6999342,28.4909382 50.452312,28.1605379 50.2999268,27.7921549 C50.1475416,27.423772 50.0713501,27.0496981 50.0713501,26.6699219 C50.0713501,26.2749546 50.1456368,25.8932853 50.2942123,25.5249023 C50.4427879,25.1565194 50.6904102,24.8261191 51.0370865,24.5336914 C51.3837628,24.2412637 51.8237685,24.0912544 52.3571167,24.0836589 L57.3400879,24.0836589 L57.3400879,25.6103516 L52.3114014,25.6103516 C52.1666354,25.6103516 52.0409195,25.669216 51.9342499,25.7869466 C51.8275802,25.9046772 51.749484,26.0413946 51.6999588,26.1971029 C51.6504336,26.3528111 51.6256714,26.5066182 51.6256714,26.6585286 C51.6256714,26.8180347 51.6504336,26.9756394 51.6999588,27.1313477 C51.749484,27.2870559 51.8275802,27.4237733 51.9342499,27.5415039 C52.0409195,27.6592345 52.1666354,27.7218967 52.3114014,27.7294922 L57.3400879,27.7294922 L57.3400879,29.2561849 L52.5628357,29.2561849 Z M71.3583679,29.2903646 L71.3583679,25.9065755 C71.3583679,25.7166874 71.259319,25.6179471 71.0612183,25.6103516 L67.0611267,25.6103516 C66.9163608,25.6179471 66.7906449,25.6806092 66.6839752,25.7983398 C66.5773056,25.9160705 66.4992093,26.0527878 66.4496841,26.2084961 C66.400159,26.3642043 66.3753967,26.5218091 66.3753967,26.6813151 C66.3753967,26.8332256 66.400159,26.9870326 66.4496841,27.1427409 C66.4992093,27.2984491 66.5773056,27.4351665 66.6839752,27.5528971 C66.7906449,27.6706278 66.9163608,27.7294922 67.0611267,27.7294922 L70.6269226,27.7294922 L70.6269226,29.2561849 L67.106842,29.2561849 C66.5734938,29.2485894 66.1334882,29.09858 65.7868118,28.8061523 C65.4401355,28.5137247 65.1925133,28.1833243 65.0439377,27.8149414 C64.8953621,27.4465585 64.8210754,27.0648891 64.8210754,26.6699219 C64.8210754,26.2901457 64.8972669,25.9160717 65.0496521,25.5476888 C65.2020373,25.1793059 65.4496595,24.8489055 65.7925262,24.5564779 C66.1353929,24.2640502 66.6420661,24.1064454 67.312561,24.0836589 L72.1126709,24.0836589 C72.3260102,24.0836589 72.5088697,24.1539164 72.6612549,24.2944336 C72.8136401,24.4349508 72.8936411,24.6115441 72.9012604,24.8242188 L72.9012604,29.2903646 L71.3583679,29.2903646 Z M87.8795624,25.4052734 L82.1765747,25.4052734 C82.0775243,25.4052734 81.9975233,25.424262 81.9365692,25.4622396 C81.8756151,25.5002172 81.8299003,25.5400931 81.7994232,25.5818685 C81.7689462,25.6236439 81.7537079,25.6597221 81.7537079,25.6901042 C81.7537079,25.7280818 81.7689462,25.7679577 81.7994232,25.8097331 C81.8299003,25.8515085 81.8756151,25.8894855 81.9365692,25.9236654 C81.9975233,25.9578452 82.0775243,25.9787326 82.1765747,25.9863281 L85.9138031,25.9863281 C86.3938165,25.9939236 86.7900121,26.0869674 87.1024017,26.2654622 C87.4147914,26.4439571 87.6376514,26.6528308 87.7709885,26.8920898 C87.9043255,27.1313489 87.970993,27.3725031 87.970993,27.6155599 C87.970993,27.8510211 87.9024207,28.0883777 87.765274,28.3276367 C87.6281274,28.5668957 87.4052674,28.7757695 87.0966873,28.9542643 C86.7881073,29.1327591 86.3938165,29.2220052 85.9138031,29.2220052 C85.8299912,29.2296007 85.7690381,29.2333984 85.7309418,29.2333984 L80.4279633,29.2333984 L80.4279633,27.9231771 L86.0052338,27.9231771 C86.1195227,27.9307726 86.2128572,27.9155818 86.2852402,27.8776042 C86.3576231,27.8396265 86.412862,27.7978518 86.4509583,27.7522786 C86.4890546,27.7067055 86.5081024,27.661133 86.5081024,27.6155599 C86.5081024,27.5927733 86.4890546,27.5528974 86.4509583,27.495931 C86.412862,27.4389646 86.3576231,27.3933921 86.2852402,27.3592122 C86.2128572,27.3250324 86.1195227,27.304145 86.0052338,27.2965495 L82.2565765,27.2965495 C81.8146595,27.288954 81.4489405,27.1959102 81.1594086,27.0174154 C80.8698767,26.8389205 80.6641597,26.6319456 80.5422516,26.3964844 C80.4203434,26.1610231 80.3593903,25.9255654 80.3593903,25.6901042 C80.3593903,25.4546429 80.4222482,25.2210841 80.547966,24.9894206 C80.6736838,24.7577571 80.8794007,24.5564787 81.165123,24.3855794 C81.4508452,24.2146801 81.8146595,24.1216364 82.2565765,24.1064453 C82.3327691,24.0988498 82.3899127,24.0950521 82.428009,24.0950521 L87.8795624,24.0950521 L87.8795624,25.4052734 Z M97.1173248,22.5 L97.1173248,24.0836589 L101.643143,24.0836589 L101.643143,25.6103516 L97.1173248,25.6103516 L97.1173248,25.8382161 C97.1097056,26.1496326 97.1306582,26.4363594 97.1801834,26.6984049 C97.2297086,26.9604505 97.3497101,27.1940094 97.5401917,27.3990885 C97.7306732,27.6041677 97.9706762,27.7143011 98.2602081,27.7294922 L101.688858,27.7294922 L101.688858,29.2561849 L97.8716278,29.2561849 C97.3382796,29.2258028 96.8982739,29.0454118 96.5515976,28.7150065 C96.2049213,28.3846012 95.9553942,27.9801456 95.803009,27.5016276 C95.6582431,27.0231096 95.5820516,26.5142171 95.5744324,25.9749349 L95.5744324,25.6103516 L93.5743866,25.6103516 L93.5743866,24.0836589 L95.5744324,24.0836589 L95.5744324,22.5 L97.1173248,22.5 Z" id="koecast"></path>
                            <path d="M9.90634918,7.78808594 L12.8484573,4.85514323 L0.830223083,4.85514323 L0.830223083,1.11979167 L17.5391769,1.11979167 C18.0572866,1.11979167 18.501374,1.29502863 18.8714523,1.64550781 C19.2230268,2.03287954 19.3988113,2.47558345 19.3988113,2.97363281 C19.3988113,3.30566572 19.3247968,3.61002466 19.1767654,3.88671875 L14.9856491,7.78808594 L9.90634918,7.78808594 Z M4.79929352,12.1875 C8.20401432,14.1428049 11.608684,14.1335819 15.0134048,12.1598307 L16.9563065,15.5078125 C12.2563114,18.4961087 7.55638692,18.4961087 2.85639191,15.5078125 L4.79929352,12.1875 Z M34.8865128,2.39257813 C34.9975363,2.39257813 35.1085581,2.40180112 35.2195816,2.4202474 L35.386116,2.4202474 C36.6813902,2.45713994 37.7453495,2.73844138 38.5780258,3.26416016 C39.4107021,3.78987893 40.0120704,4.3893738 40.3821487,5.06266276 C40.7522271,5.73595172 40.9372635,6.41384207 40.9372635,7.09635417 C40.9372635,7.79731253 40.756853,8.48442589 40.3960266,9.15771484 C40.0352002,9.8310038 39.4384578,10.4258872 38.6057816,10.9423828 C37.8101131,11.4404322 36.5426138,11.7078991 34.8032455,11.7447917 L32.3607407,11.7447917 C32.6012916,12.242841 32.8233353,12.620984 33.0268784,12.8792318 C33.4154606,13.4141737 33.9243107,13.7000866 34.5534439,13.7369792 L40.6041946,13.7369792 L40.6041946,17.4446615 L33.7207718,17.4446615 C32.4069937,17.3708764 31.361538,16.6883745 30.5843735,15.3971354 C29.9737442,14.3825904 29.4001314,13.2850536 28.8635178,12.1044922 C28.6229668,12.2151698 28.4009232,12.3442918 28.1973801,12.491862 C27.5682469,12.9714651 27.1241595,13.460284 26.8651047,13.9583333 L24.3670883,17.9427083 L21.3972244,15.8121745 L24.0062637,11.6341146 C24.6353969,10.6011233 25.4958162,9.73877299 26.5875473,9.04703776 C27.6792784,8.35530253 28.7617414,8.0186631 29.8349686,8.03710938 L35.913475,8.03710938 C36.1910338,8.03710938 36.4177034,7.98177139 36.5934906,7.87109375 C36.7692778,7.76041611 36.8988033,7.63590564 36.9820709,7.49755859 C37.0653386,7.35921155 37.1069717,7.21625508 37.1069717,7.0686849 C37.1069717,6.93956099 37.0653386,6.80582751 36.9820709,6.66748047 C36.8988033,6.52913342 36.7692778,6.40462295 36.5934906,6.29394531 C36.4177034,6.18326768 36.1910338,6.11870669 35.913475,6.10026042 L22.285408,6.10026042 L22.285408,2.39257813 L29.5574112,2.39257813 L29.5574112,0.594075521 L33.3044357,0.594075521 L33.3044357,2.39257813 L34.8865128,2.39257813 Z M44.267952,3.33333333 L51.234642,3.33333333 L51.0125961,0.704752604 L54.7596207,0.704752604 L54.9816666,3.33333333 L62.9753189,3.33333333 L62.9753189,7.04101563 L55.3702469,7.04101563 L55.6478043,9.91861979 L62.9753189,9.91861979 L62.9753189,13.6263021 L56.0086288,13.6263021 L56.3694534,17.4723307 L52.6224289,17.4723307 L52.2616043,13.6263021 L44.267952,13.6263021 L44.267952,9.91861979 L51.9007797,9.91861979 L51.6232224,7.04101563 L44.267952,7.04101563 L44.267952,3.33333333 Z M66.4170303,5.0764974 L69.303627,5.0764974 L69.303627,3.96972656 L72.3012466,3.96972656 L72.3012466,5.0764974 L77.2417679,5.0764974 C77.3342875,5.0764974 77.4268057,5.08572039 77.5193253,5.10416667 L77.6303482,5.10416667 C78.6665676,5.12261294 79.517735,5.39469138 80.183876,5.92041016 C80.8500171,6.44612893 81.3311117,7.0410123 81.6271744,7.70507813 C81.9232371,8.36914395 82.0712662,9.0424228 82.0712662,9.7249349 C82.0712662,10.4258933 81.927863,11.1083951 81.6410522,11.7724609 C81.3542415,12.4365268 80.8731469,13.0314101 80.1977539,13.5571289 C79.5223609,14.0828477 78.6665676,14.3364801 77.6303482,14.3180339 L74.4106827,14.3180339 L74.4106827,11.3574219 L77.7691269,11.3574219 C78.0466857,11.3574219 78.2779812,11.2651919 78.4630203,11.0807292 C78.6480595,10.8962664 78.7868368,10.6841375 78.8793564,10.4443359 C78.971876,10.2045344 79.0181351,9.95551344 79.0181351,9.69726563 C79.0181351,9.45746408 78.971876,9.21766613 78.8793564,8.97786458 C78.7868368,8.73806304 78.6480595,8.52593408 78.4630203,8.34147135 C78.2779812,8.15700863 78.0466857,8.05555565 77.7691269,8.03710938 L72.3012466,8.03710938 L72.3012466,17.4446615 L69.303627,17.4446615 L69.303627,8.03710938 L66.4170303,8.03710938 L66.4170303,5.0764974 Z M85.7350235,1.11979167 L103.637474,1.11979167 C104.155584,1.11979167 104.525657,1.29502863 104.747704,1.64550781 C104.914239,2.01443327 104.886483,2.45713717 104.664436,2.97363281 C104.516405,3.30566572 104.303613,3.61002466 104.026054,3.88671875 L97.5589676,9.94628906 L105.524864,17.4446615 L100.056984,17.4446615 L94.8389053,12.4641927 L89.4542923,17.5 L84.5692825,17.5 L97.9197922,4.82747396 L85.7350235,4.82747396 L85.7350235,1.11979167 Z" id="こえキャス"></path>
                        </g>
                    </g>
                    <g id="Logo-/-logo-icon#light-gray" transform="translate(0.000000, 1.333333)">
                        <path d="M17.1572235,2.89068024 C18.7208381,2.89068024 19.4355486,9.62033385 19.4355486,17.9219302 C19.4355486,26.2235266 18.7208381,32.9531802 17.1572235,32.9531802 C15.593609,32.9531802 14.8788984,26.2235266 14.8788984,17.9219302 C14.8788984,9.62033385 15.593609,2.89068024 17.1572235,2.89068024 Z M23.2446121,12.4104167 C24.4758624,12.4104167 25.0387931,15.6630038 25.0387931,19.6755208 C25.0387931,23.6880379 24.4758624,26.940625 23.2446121,26.940625 C22.0131476,26.940625 21.450431,23.6880379 21.450431,19.6755208 C21.450431,15.6630038 22.0131476,12.4104167 23.2446121,12.4104167 Z M10.7450245,9.90522279 C11.9752831,9.9130069 12.5110035,13.056882 12.478101,16.9310153 C12.4451985,20.8051485 11.856117,23.9421447 10.6258584,23.9343605 C9.39559975,23.9265764 8.85987938,20.7827013 8.89257097,16.9085681 C8.9256844,13.0344348 9.51476589,9.89743868 10.7450245,9.90522279 Z M29.8147077,18.6272442 C30.711901,19.4177349 32.2155172,18.9435129 32.2155172,20.1765625 C32.2155172,21.4097931 30.7075826,20.9433511 29.8147077,21.7258808 C28.9218327,22.5084104 28.5449005,23.4333333 27.9942051,23.4333333 C27.1973625,23.4333333 26.8329741,21.9752047 26.8329741,20.1765625 C26.8329741,18.3779203 27.1973625,16.9197917 27.9942051,16.9197917 C28.5449005,16.9197917 28.9173087,17.8367536 29.8147077,18.6272442 Z M5.74403789,13.9763347 C6.67260027,13.9763347 7.09696196,16.0542171 7.09696196,17.9220378 C7.09696196,19.7896707 6.67260027,21.3040691 5.74403789,21.3040691 C4.49112953,21.3040691 4.81656028,18.5952499 3.88062146,19.2053308 C3.01996563,19.7663722 2.3124792,18.5326824 2.3124792,17.3504746 C2.3124792,15.6667867 3.22563786,14.8218425 3.92010706,15.6350332 C4.91180301,16.7961972 4.38265262,13.9763347 5.74403789,13.9763347 Z M37,19.9260417 C37,20.7562477 36.330538,21.4291667 35.5048491,21.4291667 C34.6791603,21.4291667 34.0096983,20.7562477 34.0096983,19.9260417 C34.0096983,19.0958357 34.6791603,18.4229167 35.5048491,18.4229167 C36.330538,18.4229167 37,19.0958357 37,19.9260417 Z" id="Fill-1"></path>
                    </g>
                </g>
            </g>
        </g>
    </g>
</svg>